<?xml version="1.0" standalone="no"?>
<!DOCTYPE svg PUBLIC "-//W3C//DTD SVG 20010904//EN"
 "http://www.w3.org/TR/2001/REC-SVG-20010904/DTD/svg10.dtd">
<svg version="1.0" xmlns="http://www.w3.org/2000/svg"
 width="183.000000pt" height="178.000000pt" viewBox="0 0 183.000000 178.000000"
 preserveAspectRatio="xMidYMid meet">

<g transform="translate(0.000000,178.000000) scale(0.100000,-0.100000)"
fill="#000000" stroke="none">
<path d="M833 1412 c-109 -35 -190 -121 -212 -224 -7 -29 -8 -91 -5 -151 5
-83 11 -109 29 -137 17 -26 25 -56 30 -122 4 -49 10 -88 14 -88 4 0 5 16 3 35
-4 30 -1 35 16 35 17 0 22 8 27 38 4 20 10 47 15 60 9 20 7 22 -21 22 -98 0
-131 133 -43 175 39 18 67 13 102 -19 l24 -21 -7 27 c-10 39 23 176 43 182 10
2 79 10 154 17 108 9 141 9 152 0 43 -36 79 -238 57 -319 -16 -56 -80 -126
-141 -154 l-48 -22 5 -56 c7 -73 13 -77 13 -9 0 53 1 56 35 72 84 40 145 121
159 212 17 107 -64 329 -146 400 -44 37 -120 65 -172 64 -17 0 -54 -8 -83 -17z"/>
<path d="M616 656 c-3 -17 -8 -56 -13 -86 l-8 -55 -77 -41 c-85 -46 -197 -125
-241 -172 l-28 -29 58 -52 c326 -293 890 -295 1212 -5 l53 48 -33 28 c-129
109 -279 183 -429 212 l-65 12 -9 42 c-5 24 -16 43 -25 46 -13 4 -162 36 -373
80 -13 3 -19 -4 -22 -28z"/>
</g>
</svg>
