<svg width="40" height="40" viewBox="0 0 40 40" fill="none" xmlns="http://www.w3.org/2000/svg">
<g clip-path="url(#clip0_1010_23908)">
<path d="M10.6 17.5H17.8V40H10.6V17.5ZM13 37.5H15.4V20H13V37.5ZM20.2 22.5H27.4V40H20.2V22.5ZM22.6 37.5H25V25H22.6V37.5ZM1 27.5H8.2V40H1V27.5ZM3.4 37.5H5.8V30H3.4V37.5ZM29.8 12.5H37V40H29.8V12.5ZM32.2 37.5H34.6V15H32.2V37.5ZM27.0437 12.1289C27.2812 12.6628 27.4 13.2031 27.4 13.75C27.4 14.2708 27.3063 14.7591 27.1188 15.2148C26.9313 15.6706 26.675 16.0677 26.35 16.4062C26.025 16.7448 25.6437 17.0117 25.2062 17.207C24.7687 17.4023 24.3 17.5 23.8 17.5C23.3 17.5 22.8312 17.4023 22.3937 17.207C21.9562 17.0117 21.575 16.7448 21.25 16.4062C20.925 16.0677 20.6688 15.6706 20.4813 15.2148C20.2938 14.7591 20.2 14.2708 20.2 13.75V13.5156C20.2 13.4375 20.2062 13.3594 20.2188 13.2812L16.6937 11.4453C16.3687 11.7839 15.9875 12.0443 15.55 12.2266C15.1125 12.4089 14.6625 12.5 14.2 12.5C13.675 12.5 13.1563 12.3763 12.6438 12.1289L7.84375 17.1289C8.08125 17.6628 8.2 18.2031 8.2 18.75C8.2 19.2708 8.10625 19.7591 7.91875 20.2148C7.73125 20.6706 7.475 21.0677 7.15 21.4062C6.825 21.7448 6.44375 22.0117 6.00625 22.207C5.56875 22.4023 5.1 22.5 4.6 22.5C4.1 22.5 3.63125 22.4023 3.19375 22.207C2.75625 22.0117 2.375 21.7448 2.05 21.4062C1.725 21.0677 1.46875 20.6706 1.28125 20.2148C1.09375 19.7591 1 19.2708 1 18.75C1 18.2292 1.09375 17.7409 1.28125 17.2852C1.46875 16.8294 1.725 16.4323 2.05 16.0938C2.375 15.7552 2.75625 15.4883 3.19375 15.293C3.63125 15.0977 4.1 15 4.6 15C5.125 15 5.64375 15.1237 6.15625 15.3711L10.9563 10.3711C10.7188 9.83724 10.6 9.29688 10.6 8.75C10.6 8.22917 10.6938 7.74089 10.8813 7.28516C11.0688 6.82943 11.325 6.43229 11.65 6.09375C11.975 5.75521 12.3563 5.48828 12.7938 5.29297C13.2313 5.09766 13.7 5 14.2 5C14.7 5 15.1688 5.09766 15.6063 5.29297C16.0438 5.48828 16.425 5.75521 16.75 6.09375C17.075 6.43229 17.3313 6.82943 17.5188 7.28516C17.7063 7.74089 17.8 8.22917 17.8 8.75V8.98438C17.8 9.0625 17.7938 9.14062 17.7812 9.21875L21.3062 11.0547C21.6312 10.7161 22.0125 10.4557 22.45 10.2734C22.8875 10.0911 23.3375 10 23.8 10C24.325 10 24.8437 10.1237 25.3562 10.3711L30.1562 5.37109C29.9188 4.83724 29.8 4.29688 29.8 3.75C29.8 3.22917 29.8938 2.74089 30.0813 2.28516C30.2688 1.82943 30.525 1.43229 30.85 1.09375C31.175 0.755208 31.5562 0.488281 31.9937 0.292969C32.4312 0.0976562 32.9 0 33.4 0C33.9 0 34.3687 0.0976562 34.8062 0.292969C35.2437 0.488281 35.625 0.755208 35.95 1.09375C36.275 1.43229 36.5312 1.82943 36.7188 2.28516C36.9063 2.74089 37 3.22917 37 3.75C37 4.27083 36.9063 4.75911 36.7188 5.21484C36.5312 5.67057 36.275 6.06771 35.95 6.40625C35.625 6.74479 35.2437 7.01172 34.8062 7.20703C34.3687 7.40234 33.9 7.5 33.4 7.5C32.875 7.5 32.3562 7.3763 31.8438 7.12891L27.0437 12.1289ZM4.6 20C4.925 20 5.20625 19.8763 5.44375 19.6289C5.68125 19.3815 5.8 19.0885 5.8 18.75C5.8 18.4115 5.68125 18.1185 5.44375 17.8711C5.20625 17.6237 4.925 17.5 4.6 17.5C4.275 17.5 3.99375 17.6237 3.75625 17.8711C3.51875 18.1185 3.4 18.4115 3.4 18.75C3.4 19.0885 3.51875 19.3815 3.75625 19.6289C3.99375 19.8763 4.275 20 4.6 20ZM33.4 2.5C33.075 2.5 32.7937 2.6237 32.5562 2.87109C32.3187 3.11849 32.2 3.41146 32.2 3.75C32.2 4.08854 32.3187 4.38151 32.5562 4.62891C32.7937 4.8763 33.075 5 33.4 5C33.725 5 34.0062 4.8763 34.2437 4.62891C34.4812 4.38151 34.6 4.08854 34.6 3.75C34.6 3.41146 34.4812 3.11849 34.2437 2.87109C34.0062 2.6237 33.725 2.5 33.4 2.5ZM14.2 10C14.525 10 14.8063 9.8763 15.0438 9.62891C15.2813 9.38151 15.4 9.08854 15.4 8.75C15.4 8.41146 15.2813 8.11849 15.0438 7.87109C14.8063 7.6237 14.525 7.5 14.2 7.5C13.875 7.5 13.5938 7.6237 13.3563 7.87109C13.1188 8.11849 13 8.41146 13 8.75C13 9.08854 13.1188 9.38151 13.3563 9.62891C13.5938 9.8763 13.875 10 14.2 10ZM23.8 15C24.125 15 24.4062 14.8763 24.6437 14.6289C24.8812 14.3815 25 14.0885 25 13.75C25 13.4115 24.8812 13.1185 24.6437 12.8711C24.4062 12.6237 24.125 12.5 23.8 12.5C23.475 12.5 23.1937 12.6237 22.9562 12.8711C22.7187 13.1185 22.6 13.4115 22.6 13.75C22.6 14.0885 22.7187 14.3815 22.9562 14.6289C23.1937 14.8763 23.475 15 23.8 15Z" stroke="#4ABD6F" stroke-width="1.5"/>
</g>
<defs>
<clipPath id="clip0_1010_23908">
<rect width="40" height="40" fill="white"/>
</clipPath>
</defs>
</svg>
