<svg width="31" height="34" viewBox="0 0 31 34" fill="none" xmlns="http://www.w3.org/2000/svg">
<path d="M0.916626 1.41667V32.5833C0.916626 32.9591 1.07027 33.3194 1.34376 33.5851C1.61725 33.8507 1.98819 34 2.37496 34H28.625C29.0117 34 29.3827 33.8507 29.6562 33.5851C29.9296 33.3194 30.0833 32.9591 30.0833 32.5833V1.41667C30.0833 1.04094 29.9296 0.680609 29.6562 0.414932C29.3827 0.149256 29.0117 0 28.625 0L2.37496 0C1.98819 0 1.61725 0.149256 1.34376 0.414932C1.07027 0.680609 0.916626 1.04094 0.916626 1.41667ZM5.29163 7.08333H14.0416V15.5833H5.29163V7.08333ZM25.7083 26.9167H5.29163V24.0833H25.7083V26.9167ZM25.7083 21.25H5.29163V18.4167H25.7083V21.25ZM25.7083 15.5833H16.9583V12.75H25.7083V15.5833ZM25.7083 9.91667H16.9583V7.08333H25.7083V9.91667Z" fill="#343434"/>
</svg>
