<?xml version="1.0" encoding="UTF-8" standalone="no"?>
<!-- Created with Inkscape (http://www.inkscape.org/) -->

<svg
   version="1.1"
   id="svg2"
   width="5333.3335"
   height="5333.3335"
   viewBox="0 0 5333.3335 5333.3335"
   sodipodi:docname="vecteezy_sprout-vector-thick-line-filled-dark-colors_34135784.eps"
   xmlns:inkscape="http://www.inkscape.org/namespaces/inkscape"
   xmlns:sodipodi="http://sodipodi.sourceforge.net/DTD/sodipodi-0.dtd"
   xmlns="http://www.w3.org/2000/svg"
   xmlns:svg="http://www.w3.org/2000/svg">
  <defs
     id="defs6" />
  <sodipodi:namedview
     id="namedview4"
     pagecolor="#ffffff"
     bordercolor="#000000"
     borderopacity="0.25"
     inkscape:showpageshadow="2"
     inkscape:pageopacity="0.0"
     inkscape:pagecheckerboard="0"
     inkscape:deskcolor="#d1d1d1" />
  <g
     id="g8"
     inkscape:groupmode="layer"
     inkscape:label="ink_ext_XXXXXX"
     transform="matrix(1.3333333,0,0,-1.3333333,0,5333.3333)">
    <g
       id="g10"
       transform="scale(0.1)">
      <path
         d="m 18070.4,24384 c -76.4,-496.9 -202.3,-985 -376,-1456.8 -1427.6,1832.8 -3748,4406.8 -6447.2,5858.4 -311.4,167.7 -699.7,51.2 -867.4,-260.2 -167.7,-311.4 -51.2,-699.7 260.2,-867.4 2616.8,-1407.2 4886.8,-4000 6222.8,-5748.8 -554.2,-240 -1134.9,-413.5 -1730,-516.8 -1729.6,-290.4 -3200,144 -4367.6,1291.2 -2420,2374.8 -3484.4,7650 -3814.8,9680 2034.4,-292.4 7328.4,-1258.4 9748,-3633.2 653.2,-640 1085.6,-1380.8 1294,-2211.6 3.2,-14.8 6.8,-29.6 11.2,-44 156,-644.3 178.3,-1341.2 66.8,-2090.8"
         style="fill:#6eb82e;fill-opacity:1;fill-rule:nonzero;stroke:none"
         id="path12" />
      <path
         d="m 31277.2,28811.2 c -863.2,-1864.8 -3305.6,-6657.2 -6280,-8295.6 -2306,-1270.8 -4756.8,94.4 -6128,1139.2 2010.8,1451.2 4956,3025.2 7588.4,3618.4 343.5,83.3 554.4,429.4 471.1,772.8 -81.3,335.1 -413.4,545.6 -751.1,476 -2491.6,-560 -5049.2,-1849.2 -6995.2,-3105.6 57.2,231.6 108,476.4 148,733.2 129.2,831.6 120,1625.2 -27.2,2369.2 420.9,588.6 971.1,1072.8 1608.4,1415.6 2968.4,1636.8 8328.4,1142.4 10365.6,876.8"
         style="fill:#6eb82e;fill-opacity:1;fill-rule:nonzero;stroke:none"
         id="path14" />
      <path
         d="m 34560,10656 c 21.9,-1202.2 -934.9,-2194.6 -2137.1,-2216.5 -500.6,-9.1 -988.9,154.5 -1382.9,463.3 -276.9,217.5 -677.4,170.5 -896.4,-105.2 -911.3,-1148 -2580.7,-1340 -3728.8,-428.7 -178.7,141.9 -338.5,306.3 -475.2,489.1 -212,282.8 -613.1,340.2 -896,128.2 -125.9,-94.4 -212.6,-231.9 -243.6,-386.2 -288.6,-1437.3 -1687.7,-2368.5 -3125,-2079.9 -760.8,152.8 -1416.7,630.8 -1795,1308.3 -172.5,308.5 -562.4,418.8 -871,246.2 -137.2,-76.7 -241.3,-201.2 -292.6,-349.8 -477.1,-1386.2 -1987.6,-2123.1 -3373.8,-1646 -1019.2,350.8 -1725,1283.1 -1786.2,2359.2 -21,352.8 -324.1,621.8 -676.9,600.8 -181.6,-10.8 -350,-98.4 -463.1,-240.8 C 11506,7649.8 9837.14,7457.1 8688.98,8367.5 c -197.55,156.7 -371.76,340.7 -517.38,546.5 -204.56,288.3 -604.07,356.1 -892.32,151.5 -0.16,-0.1 -0.32,-0.2 -0.48,-0.3 -981.35,-695.2 -2340.48,-463.3 -3035.69,518.1 -695.22,981.3 -463.27,2340.5 518.09,3035.7 602,426.5 1378.99,519.1 2064.4,246.2 328.26,-131.1 700.63,28.8 831.71,357 21.53,53.9 35.62,110.5 41.89,168.2 159.39,1456.9 1469.62,2508.6 2926.5,2349.2 705.1,-77.1 1350,-433.4 1790.7,-989.2 219.9,-276.8 622.4,-322.9 899.2,-103.1 142.4,113.2 230,281.5 240.8,463.1 84.5,1463.3 1339.3,2581.1 2802.6,2496.6 939.8,-54.3 1780.4,-602.3 2209.4,-1440.2 9.6,-18.8 20,-37.6 31.2,-55.6 v 0 c 91.4,-252.9 331.1,-421.6 600,-422.4 h 30.8 v 0 c 18.4,-2.8 36.4,-5.2 54.8,-6.8 308.7,-28.1 609.9,105.1 796.8,352.4 885.8,1168.1 2550.8,1396.9 3718.9,511.1 516.7,-391.8 872.1,-959.2 999.1,-1595.1 68.9,-346.7 405.8,-571.8 752.5,-502.9 154.9,30.8 292.9,117.7 387.5,244.1 877.7,1173.9 2540.9,1414 3714.8,536.3 638.7,-477.6 1028.8,-1217.1 1062.4,-2013.9 14.5,-353.2 312.6,-627.7 665.8,-613.1 70.9,2.9 140.9,17.6 207,43.5 279.9,109.8 579.6,160.3 880,148.4 v 0 c 1152.6,-46.4 2069.1,-983.5 2090,-2136.8"
         style="fill:#87645b;fill-opacity:1;fill-rule:nonzero;stroke:none"
         id="path16" />
      <path
         d="m 15934,22192.4 c -1729.6,-290.4 -3200,144 -4367.6,1291.2 -2420,2374.8 -3484.4,7650 -3814.8,9680 2034.4,-292.4 7328.4,-1258.4 9748,-3633.2 653.2,-640 1085.6,-1380.8 1294,-2211.6 4,-14.8 7.6,-29.2 11.2,-44 155.2,-643.2 177.1,-1339.6 65.6,-2089.2 -121.9,-778.5 -361.9,-1533.9 -711.6,-2240 -110,-58 -280,-142.4 -494.8,-234.8 -554.2,-240.6 -1134.9,-414.6 -1730,-518.4 z m 4168.4,5127.6 c -96,494.1 -255.6,973.7 -474.8,1426.8 -309.7,632.2 -726.2,1206.3 -1231.2,1696.8 C 15059.2,33718 7384,34508.4 7058.8,34540.4 c -351.73,34.9 -665.16,-222 -700.05,-573.7 -4.56,-45.9 -4.14,-92.1 1.25,-137.9 199.66,-1527.2 506.15,-3038.5 917.2,-4522.8 655.6,-2364.4 1723.2,-5098 3392,-6736 1174,-1152.4 2630.4,-1744 4264,-1744 421.8,1.1 842.6,38.4 1258,111.6 740.1,132.2 1460.7,356.9 2144.8,668.8 80,35.6 150.4,69.6 215.2,101.2 194,95.2 326,169.6 383.6,202.8 l 22,12.8 9.2,5.6 c 10.4,6 20,12.4 29.6,19.2 9.6,6.8 24,16.4 35.6,25.6 v 0 c 62.9,49.8 115.8,111 156,180.4 8.4,14.4 71.2,124.4 162.8,312.4 25.2,52 52.8,110 82,173.6 230,507.4 413.5,1034.7 548.4,1575.2 v 0 c 57.2,231.6 108,476.4 148,733.2 130.4,832.8 120,1626.4 -26,2371.6"
         style="fill:#15273a;fill-opacity:1;fill-rule:nonzero;stroke:none"
         id="path18" />
      <path
         d="m 20640,17137.6 v -7.2 c 0.4,-341.5 -267.3,-623.1 -608.4,-640 v 0 h -30.8 c -268.9,0.8 -508.6,169.5 -600,422.4 v 0 c -26.7,71.7 -40.2,147.5 -40,224 -11.4,647.9 -84.4,1293.2 -218,1927.2 -183,872.1 -452.8,1723.7 -805.6,2542 -116.4,270 -208,454.8 -247.6,532.8 -128.4,176.4 -270.4,367.6 -424.8,570 C 16328,24458 14058,27050.8 11440,28458 c -311.4,167.3 -428.1,555.4 -260.8,866.8 167.3,311.4 555.4,428.1 866.8,260.8 v 0 c 2700.4,-1451.6 5020.8,-4025.6 6448.4,-5858.4 93.6,-120 183.2,-236.5 268.8,-349.6 124,-164 240,-320 347.2,-467.2 l 42.4,-58.4 c 18.1,-24.8 34.4,-50.9 48.8,-78 10.8,-20.4 66.4,-127.2 149.6,-306.8 26.7,-54.9 54.8,-116.4 84.4,-184.4 234.8,-529.4 438.6,-1072.1 610.4,-1625.2 240.5,-762.4 412.5,-1544.7 514,-2337.6 48.5,-392.3 75.2,-787.1 80,-1182.4"
         style="fill:#15273a;fill-opacity:1;fill-rule:nonzero;stroke:none"
         id="path20" />
      <path
         d="m 33596,29880 c -124,-302.4 -3084,-7428 -7179.6,-9684.4 -801.1,-446.7 -1703.2,-680.8 -2620.4,-680 -30.4,0 -60.8,0 -91.6,0 -783.2,12.4 -1600,189.2 -2425.6,525.2 -425.4,174.6 -837.4,380.1 -1232.8,614.8 -524.6,310.8 -1024.2,661.8 -1494.4,1050 -106.7,86.4 -211.3,175.2 -314,266.4 -4.1,3.1 -7.9,6.5 -11.6,10 l -14,12 c -17.7,15.6 -34.5,32.2 -50.4,49.6 -8,8.8 -15.6,17.6 -22.8,26.4 l -10.8,13.6 c -12.1,15.4 -23.3,31.4 -33.6,48 l -14,23.2 c -12,20.4 -22.7,41.5 -32,63.2 -2.8,6 -5.2,12 -7.6,18 -1.6,3.4 -2.9,6.8 -4,10.4 -7.7,20.8 -14.5,42 -20.4,63.6 -18.8,72 -25.2,146.7 -18.8,220.8 0,9.2 2,18.8 3.2,28 1.2,9.2 2.8,18.8 4.4,28 2.9,17.5 6.8,34.9 11.6,52 2.8,10.8 5.6,21.6 9.2,32 v 0 c 2,6.9 4.4,13.8 7.2,20.4 13.3,37.9 30.3,74.3 50.8,108.8 5.2,9.2 10.8,18 16.4,26.8 l 6.4,9.6 c 6.4,9.6 13.2,18.8 20.4,28 7.2,9.2 15.6,20 24.4,29.6 v 0 c 8.8,10 17.6,19.6 27.2,29.2 l 9.6,9.6 c 3.5,3.7 7.3,7.1 11.2,10.4 l 14,12.8 c 8,7.2 16,13.6 24.4,20.4 242.6,191.6 587.6,182.3 819.6,-22 l 52.4,-46 c 96.4,-83.6 204,-174.4 322.8,-269.6 74.8,-60.4 154,-122.8 237.2,-186 1370,-1042.8 3822.4,-2408 6130,-1137.2 2973.2,1640 5415.6,6430.8 6280,8295.6 -2038,265.6 -7396.8,760 -10366.4,-876.8 -638.2,-342.1 -1189.3,-825.9 -1611.2,-1414.4 -48.3,-68.5 -94.7,-138.5 -139.2,-210 -186.3,-300.3 -580.9,-392.8 -881.2,-206.4 -136.1,84.4 -235.5,216.7 -278.8,370.8 -3.6,14.8 -7.2,29.2 -11.2,44 -33.6,161.3 -3.6,329.4 83.6,469.2 215.4,345.7 467,667.5 750.4,960 430.5,440.7 924.4,814.9 1465.2,1110 4095.6,2256.8 11700.4,953.2 12022,896.8 348,-61.9 580,-394.1 518.1,-742.2 -8,-44.9 -20.8,-88.8 -38.1,-131 l 2.8,-1.2"
         style="fill:#15273a;fill-opacity:1;fill-rule:nonzero;stroke:none"
         id="path22" />
      <path
         d="M 27257.6,26073.2 C 24625.2,25480 21680,23906 19670.4,22454.8 c -80,-57.2 -158,-114.8 -234.8,-172 -139.6,-103.6 -274.4,-206.8 -403.2,-308.4 v 0 c -11.6,-9.2 -23.6,-17.6 -35.6,-25.6 -12,-8 -19.2,-13.2 -29.6,-19.2 l -9.2,-5.6 -22,-12.8 c -224.5,-119.2 -498.3,-94.3 -697.6,63.6 -4,3.1 -7.9,6.5 -11.6,10 l -14,12 -3.2,3.2 c -16.6,14.5 -32.4,30 -47.2,46.4 -8,8.8 -15.6,17.6 -22.8,26.4 -2.3,2.3 -4.5,4.9 -6.4,7.6 l -4.4,6 c -12,15.4 -23.3,31.4 -33.6,48 l -14,23.2 c -12,20.4 -22.7,41.5 -32,63.2 -2.8,6 -5.2,12 -7.6,18 -1.6,3.4 -2.9,6.8 -4,10.4 -7.7,20.8 -14.5,42 -20.4,63.6 -19.2,71.9 -25.5,146.7 -18.8,220.8 0,9.2 2,18.8 3.2,28 1.2,9.2 2.8,18.8 4.4,28 2.9,17.5 6.7,34.9 11.6,52 2.8,10.8 5.6,21.6 9.2,32 v 0 c 2,6.9 4.4,13.8 7.2,20.4 13.2,36.9 29.9,72.4 50,106 5.2,9.2 10.8,18 16.4,26.8 l 6.4,9.6 c 6.4,9.6 13.2,18.8 20.4,28 7.2,9.2 15.6,20 24.4,29.6 v 0 c 8.8,10 17.6,19.6 27.2,29.2 l 9.6,9.6 c 3.5,3.7 7.3,7.1 11.2,10.4 l 14,12.8 c 8,7.2 16,13.6 24.4,20.4 164.4,129.6 339.6,263.2 524.8,400 369.6,272 778.4,554.4 1218.4,840 v 0 c 1946,1256.4 4503.6,2546 6995.2,3105.6 346.2,71.3 684.6,-151.5 755.9,-497.7 69.6,-337.7 -140.8,-669.8 -475.9,-751.1 h 1.2"
         style="fill:#15273a;fill-opacity:1;fill-rule:nonzero;stroke:none"
         id="path24" />
      <path
         d="M 34735.6,9889.6 C 33958.8,9099.2 32712,9018.7 31840,9702.8 c -276.9,217.5 -677.4,170.5 -896.4,-105.2 -911.3,-1148 -2580.7,-1340 -3728.8,-428.7 -178.7,141.9 -338.5,306.3 -475.2,489.1 -212,282.8 -613.1,340.2 -896,128.2 -125.9,-94.4 -212.6,-231.9 -243.6,-386.2 -288.6,-1437.3 -1687.7,-2368.5 -3125,-2079.9 -760.8,152.8 -1416.7,630.8 -1795,1308.3 -172.5,308.5 -562.5,418.8 -871,246.2 -137.2,-76.7 -241.3,-201.2 -292.6,-349.8 -477.1,-1386.2 -1987.6,-2123.1 -3373.8,-1646 -1019.2,350.8 -1725,1283.1 -1786.2,2359.2 -21,352.8 -324.1,621.8 -676.9,600.8 -181.6,-10.8 -350,-98.4 -463.1,-240.8 -910.4,-1148.2 -2579.3,-1340.9 -3727.42,-430.5 -197.55,156.7 -371.76,340.7 -517.38,546.5 -204.56,288.3 -604.07,356.1 -892.32,151.5 -0.16,-0.1 -0.32,-0.2 -0.48,-0.3 -981.35,-695.2 -2340.48,-463.3 -3035.69,518.1 -695.22,981.3 -463.27,2340.5 518.09,3035.7 602,426.5 1378.99,519.1 2064.4,246.2 328.26,-131.1 700.63,28.8 831.71,357 21.53,53.9 35.62,110.5 41.89,168.2 159.39,1456.9 1469.62,2508.6 2926.5,2349.2 705.1,-77.1 1350,-433.4 1790.7,-989.2 219.9,-276.8 622.4,-322.9 899.2,-103.1 142.4,113.2 230,281.5 240.8,463.1 84.5,1463.3 1339.3,2581.1 2802.6,2496.6 939.8,-54.3 1780.4,-602.3 2209.4,-1440.2 9.6,-18.8 20,-37.6 31.2,-55.6 v 0 c 137.3,-227.8 369.3,-382.5 632.4,-421.6 v 0 c 18.4,-2.8 36.4,-5.2 54.8,-6.8 308.6,-28.1 609.9,105.1 796.8,352.4 886.8,1167.3 2552.1,1394.7 3719.4,507.9 515.4,-391.6 870,-958 997,-1592.7 68.9,-346.7 405.8,-571.8 752.5,-502.9 154.9,30.8 292.9,117.7 387.5,244.1 877.7,1173.9 2540.9,1414 3714.8,536.3 638.7,-477.6 1028.8,-1217.1 1062.4,-2013.9 14.5,-353.2 312.6,-627.7 665.8,-613.1 70.9,2.9 140.9,17.6 207,43.5 279.9,109.8 579.6,160.3 880,148.4 v 0 c 1202.1,-47.8 2138,-1061 2090.2,-2263.2 -21.5,-540.6 -243.4,-1054 -622.6,-1440 z m -1418.4,4982 c -211.2,8.4 -422.8,-2.6 -632,-32.8 -520.2,2112 -2654.1,3402.4 -4766,2882.1 -518.3,-127.6 -1005.2,-359.3 -1431.2,-680.9 -678.5,1302.4 -2024.2,2120.3 -3492.8,2122.8 -1039,3.2 -2036.6,-407.6 -2772,-1141.6 -1250.4,1777.6 -3705.1,2205 -5482.7,954.6 -639,-449.5 -1129.7,-1078.9 -1409.7,-1808.2 -1806,1211.4 -4252.12,729.4 -5463.55,-1076.6 -214.28,-319.4 -380.6,-668.5 -493.65,-1036.2 -1884.86,307.6 -3662.22,-971 -3969.85,-2855.8 -307.62,-1884.9 970.99,-3662.3 2855.85,-3969.9 695.06,-113.4 1408.18,-11.9 2044,290.9 1323.76,-1374.3 3442.8,-1600.9 5027.2,-537.6 778.4,-2029.2 3054.4,-3043.1 5083.6,-2264.6 729.9,280 1359.9,771.1 1809.6,1410.6 1541.4,-1530.9 4032,-1522.5 5562.9,18.9 281.1,282.9 517.5,607 701.1,961.1 1525.9,-1151.1 3657.8,-1041.2 5057.2,260.8 1682.9,-903.9 3779.8,-272.3 4683.7,1410.5 280.5,522.2 422,1107.7 411.1,1700.3 -34,1832.4 -1491.5,3320.1 -3322.8,3391.6"
         style="fill:#15273a;fill-opacity:1;fill-rule:nonzero;stroke:none"
         id="path26" />
    </g>
  </g>
</svg>
