<svg
    width="40"
    height="40" fill="none"
    xmlns="http://www.w3.org/2000/svg">
    <path d="M 37.77777738349382 23.157899856567383 L 37.77777738349382 33.68421173095703 C 37.77777738349381 35.35926306247711 37.07539868909259 36.965710163116455 35.82515627838844 38.150150299072266 C 34.574913867684295 39.334590435028076 32.8792228255161 39.99999999999999 31.111113082530885 40 L 22.222224390783975 40 L 22.222224390783975 23.157899856567383 L 37.77777738349382 23.157899856567383 Z M 17.77777915777162 23.157899856567383 L 17.77777915777162 40 L 8.888892240302507 40 C 7.1207824973172915 39.99999999999999 5.425089680871299 39.334590435028076 4.1748472701671515 38.150150299072266 C 2.9246048594630043 36.965710163116455 2.2222257214923253 35.35926306247711 2.2222257214923236 33.68421173095703 L 2.2222257214923236 23.157899856567383 L 17.77777915777162 23.157899856567383 Z M 13.333335699037065 0.00000591292427998269 C 14.594638292179551 -0.0014117983364485553 15.841744777768156 0.25212422013282776 16.991380203601924 0.7436841130256653 C 18.141015629435692 1.2352440059185028 19.16672046794448 1.953514575958252 20.0000017742778 2.850532293319702 C 20.833283080611118 1.953514575958252 21.8589879191199 1.2352440059185028 23.00862334495367 0.7436841130256653 C 24.158258770787437 0.25212422013282776 25.405365256376044 -0.0014117983364485553 26.666667849518532 0.00000591292427998269 L 27.77777915777162 0.00000591292427998269 C 28.661834029264227 0.00000591292427998269 29.50967777607053 0.3327118158340454 30.134798981422602 0.9249318838119507 C 30.759920186774675 1.517151951789856 31.111113082530885 2.32037490606308 31.111113082530885 3.15790057182312 L 31.111113082530885 4.210532188415527 C 31.111113082530885 5.745268821716309 30.677778221840082 7.183163046836853 29.922222758448402 8.42105770111084 L 35.55555476698765 8.42105770111084 C 36.7342946695727 8.421057701110842 37.8647565287213 8.86466532945633 38.69825141374455 9.654292106628418 C 39.5317462987678 10.443918883800507 40 11.514883160591125 40 12.631584167480469 L 40 16.84210968017578 C 40 17.60842537879944 39.784445873526636 18.328425109386444 39.40444591433503 18.947372436523438 L 22.222224390783975 18.947372436523438 L 22.222224390783975 12.631584167480469 C 22.222224390783975 12.073233664035797 21.988097540167875 11.537752002477646 21.57135009765625 11.142938613891602 C 21.154602655144625 10.748125225305557 20.589371725570324 10.526321411132812 20.0000017742778 10.526321411132812 C 19.410631822985273 10.526321411132812 18.84540089341097 10.748125225305557 18.428653450899347 11.142938613891602 C 18.011906008387722 11.537752002477646 17.77777915777162 12.073233664035797 17.77777915777162 12.631584167480469 L 17.77777915777162 18.947372436523438 L 0.5955590203750966 18.947372436523438 C 0.20445909611014434 18.30768656730652 -0.0010127897080247897 17.581351816654205 0.0000037536470742008195 16.84210968017578 L 0.0000037536470742008195 12.631584167480469 C 0.0000037536470742008195 11.514883160591125 0.46825614086417267 10.443918883800507 1.3017510258874228 9.654292106628418 C 2.135245910910673 8.86466532945633 3.2657075482745506 8.421057701110842 4.444447450859602 8.42105770111084 L 10.077780790107195 8.42105770111084 C 9.296554354734198 7.141403794288635 8.88639505606058 5.688798189163208 8.888892240302507 4.210532188415527 L 8.888892240302507 3.15790057182312 C 8.888892240302507 2.32037490606308 9.240080700364224 1.517151951789856 9.865201905716297 0.9249318838119507 C 10.49032311106837 0.3327118158340454 11.338170406430267 0.000005912924280450152 12.222225277922874 0.00000591292427998269 L 13.333335699037065 0.00000591292427998269 Z M 13.333335699037065 4.210532188415527 C 13.333335699037065 5.327233195304871 13.801589400269265 6.398196995258331 14.635084285292514 7.18782377243042 C 15.468579170315763 7.9774505496025085 16.599039255186568 8.421057701110838 17.77777915777162 8.42105770111084 C 17.77777915777162 7.304356694221497 17.309527230817217 6.233392894268036 16.476032345793968 5.443766117095947 C 15.642537460770718 4.654139339923859 14.512075601622117 4.21053218841553 13.333335699037065 4.210532188415527 Z M 26.666667849518532 4.210532188415527 C 25.487927946933482 4.210532188415529 24.35746608778488 4.654139339923859 23.52397120276163 5.443766117095947 C 22.69047631773838 6.233392894268036 22.222224390783975 7.304356694221497 22.222224390783975 8.42105770111084 C 23.400964293369025 8.42105770111084 24.53142437823983 7.9774505496025085 25.36491926326308 7.18782377243042 C 26.19841414828633 6.398196995258331 26.666667849518532 5.327233195304871 26.666667849518532 4.210532188415527 Z" fill="rgb(74,189,111)"/>
</svg>
