<?xml version="1.0" encoding="UTF-8" standalone="no"?>
<!-- Created with Inkscape (http://www.inkscape.org/) -->

<svg
   version="1.1"
   id="svg2"
   width="3228.8799"
   height="5163.7334"
   viewBox="0 0 3228.8799 5163.7334"
   sodipodi:docname="vecteezy_location-pin-creative-icon-design_15522844.eps"
   xmlns:inkscape="http://www.inkscape.org/namespaces/inkscape"
   xmlns:sodipodi="http://sodipodi.sourceforge.net/DTD/sodipodi-0.dtd"
   xmlns="http://www.w3.org/2000/svg"
   xmlns:svg="http://www.w3.org/2000/svg">
  <defs
     id="defs6" />
  <sodipodi:namedview
     id="namedview4"
     pagecolor="#ffffff"
     bordercolor="#000000"
     borderopacity="0.25"
     inkscape:showpageshadow="2"
     inkscape:pageopacity="0.0"
     inkscape:pagecheckerboard="0"
     inkscape:deskcolor="#d1d1d1" />
  <g
     id="g8"
     inkscape:groupmode="layer"
     inkscape:label="ink_ext_XXXXXX"
     transform="matrix(1.3333333,0,0,-1.3333333,0,5163.7333)">
    <g
       id="g10"
       transform="scale(0.1)">
      <path
         d="m 15329.2,28127 c 344.1,0 569.5,375.4 393.1,681 l -1951.1,3379.6 c -746.1,1292 -2581.8,1229.7 -3291.8,0 L 9379.97,30283.4 c -299.02,-517.8 487.4,-971.1 786.13,-454 l 1099.1,1904.1 c 368.8,638.6 1327.7,678 1719.2,0 l 1951.2,-3379.7 c 84.3,-145.5 237,-226.8 393.6,-226.8 z M 10344.3,22688.4 H 8284.37 c -1459.89,4.9 -2374.36,1585.6 -1645.8,2847.4 l 1456.81,2523 c 298.56,517.3 1084.52,63.9 785.96,-453.8 l -1456.8,-2523 c -380.6,-659.3 101.1,-1483.3 862.75,-1485.9 H 10344 c 597.3,0 597.7,-907.7 0.3,-907.7 z m 2481,0 c -597.4,0 -597.1,907.7 0,907.7 h 3139.5 c 759.1,2.6 1242.6,823.2 859.4,1486 -391.8,678.7 -973.9,1352.9 -436.8,1663.8 537.4,310.7 832.3,-533.7 1222.9,-1210.2 731.3,-1267.1 -186.2,-2842.6 -1643,-2847.6 h -3142 v 0.3 0"
         style="fill:#673b8d;fill-opacity:1;fill-rule:evenodd;stroke:none"
         id="path12" />
      <path
         d="m 15331.1,28123.8 c -191.8,0 -1581.2,630.3 -1861.9,749.1 -547.3,231.8 -195.1,1068.4 354,836.2 L 14954,29230 c 98.5,794.6 38.8,1687.9 656.9,1613.3 248.7,-30.8 425.3,-257.2 394.6,-506.2 l -224.4,-1815.4 c -28.3,-228.2 -222.6,-397.9 -450,-397.9"
         style="fill:#673b8d;fill-opacity:1;fill-rule:evenodd;stroke:none"
         id="path14" />
      <path
         d="m 14271.3,21586.1 c -284.7,0 -1348.4,903.4 -1733.2,1194 -240.4,181.4 -240.4,542.8 0,724.2 l 1460.2,1102.1 c 475.3,358.4 1022.2,-366 547,-724.5 l -980.1,-740.1 c 633.5,-478.1 1445.5,-879.1 1068.7,-1375.4 -89.2,-117.8 -224.7,-180.3 -362.6,-180.3"
         style="fill:#673b8d;fill-opacity:1;fill-rule:evenodd;stroke:none"
         id="path16" />
      <path
         d="m 8712.2,25562.6 c -562.19,0 -501.24,814.3 -600.51,1616.8 -732.4,-310.2 -1482.35,-811.8 -1725.51,-237.9 -97.73,230.7 10,497.3 241,595 l 1684.27,713.3 c 276.87,117.1 590.36,-63.9 627.45,-362.1 l 224.53,-1815.4 c 33.4,-270.3 -179.75,-509.7 -451.23,-509.7"
         style="fill:#673b8d;fill-opacity:1;fill-rule:evenodd;stroke:none"
         id="path18" />
      <path
         d="M 10018.3,6665.7 C 4382.88,6369.3 907.539,4967.2 907.539,3813.9 907.539,2600.3 5168.84,907.699 12108.3,907.699 c 6939.1,0 11200.6,1692.601 11200.6,2906.201 0,1153.3 -3475.1,2555.1 -9110.5,2851.8 -745.8,-1325.1 -1293.4,-2309.4 -1688,-3062.6 -169.3,-322.9 -633.6,-324.1 -803.5,0.3 -393.5,749.5 -941.1,1734.4 -1688.6,3062.3 z M 12108.3,0 C 6238.28,0 0,1336.8 0,3814.2 c 0,2283 5150.68,3539.4 10255.5,3771.8 169.7,8.3 331.8,-81.3 416,-230.2 589.1,-1045.6 1061.6,-1889 1436.8,-2579.7 376.3,691.9 848.1,1535.3 1436.9,2579.7 84.1,148.9 244.4,238.8 416.2,230.2 C 19065.6,7353.9 24216.6,6097.2 24216.6,3814.2 24216.6,1336.8 17978.1,0 12108.3,0 v 0"
         style="fill:#673b8d;fill-opacity:1;fill-rule:evenodd;stroke:none"
         id="path20" />
      <path
         d="m 15331.1,28123.8 c 227.4,0 421.7,169.7 450,397.9 l 224.4,1815.4 c 30.7,249 -145.9,475.4 -394.6,506.2 -414.9,50.2 -524.5,-335.9 -581.5,-835.5 l -1258.2,2179.8 c -746.1,1292 -2581.8,1229.7 -3291.8,0 L 9379.97,30283.4 c -299.02,-517.8 487.4,-971.1 786.13,-454 l 1099.1,1904.1 c 368.8,638.6 1327.7,678 1719.2,0 l 1275.8,-2209.6 -437,185.2 c -549.1,232.2 -901.3,-604.4 -354,-836.2 227.5,-96.3 1183.2,-528.6 1639.3,-689 57,-31.5 120.1,-50.4 184.7,-55.5 15.4,-3.1 28,-4.6 37.9,-4.6 z m -2793,-5343.7 c -240.4,181.4 -240.4,542.8 0,724.2 l 1460.2,1102.1 c 475.3,358.4 1022.2,-366 547,-724.5 l -378.6,-285.8 h 1798.1 c 759.1,2.6 1242.6,823.2 859.4,1486 -391.8,678.7 -973.9,1352.9 -436.8,1663.8 537.4,310.7 832.3,-533.7 1222.9,-1210.2 731.3,-1267.1 -186.2,-2842.6 -1643,-2847.6 h -1766.8 c 404.2,-299.1 685.8,-589 433.4,-921.7 -89.2,-117.8 -224.7,-180.3 -362.6,-180.3 -284.7,0 -1348.4,903.4 -1733.2,1194 z m -8262.03,4580.3 c 0,-4318.8 3513.51,-7832.3 7832.23,-7832.3 4318.8,0 7832.3,3513.5 7832.3,7832.3 0,4318.7 -3513.5,7832.2 -7832.3,7832.2 -4318.72,0 -7832.23,-3513.5 -7832.23,-7832.2 z M 10344,23596.1 c 597.3,0 597.7,-907.7 0.3,-907.7 H 8284.37 c -1459.89,4.9 -2374.36,1585.6 -1645.8,2847.4 l 762.26,1320 c -460.62,-200.4 -851.67,-299 -1014.65,85.7 -97.73,230.7 10,497.3 241,595 l 1618.86,685.5 c 80.96,52.4 172.52,71.2 262.25,63.4 148.66,-7 286.87,-87.6 365.82,-214 49.24,-72.3 77.56,-158.6 73.4,-252.4 l 215.92,-1746.7 c 33.4,-270.3 -179.75,-509.7 -451.23,-509.7 -374.28,0 -472.46,361 -525.56,839.3 L 7424.54,25082 c -380.6,-659.3 101.1,-1483.3 862.75,-1485.9 H 10344 v 0"
         style="fill:#33cc66;fill-opacity:1;fill-rule:evenodd;stroke:none"
         id="path22" />
      <path
         d="M 15550.5,10940.4 H 8665.88 c 1213.95,-2175.6 2364.92,-4199 3251.42,-5814.6 50.8,-92.7 100,-182.6 147.9,-270.3 11.2,-20.6 22.5,-41.2 33.4,-61.5 3.4,-5.9 6.5,-12 9.7,-17.9 108.8,199.8 225.1,412.1 350.4,638.4 862.8,1565.4 1949.3,3478.4 3091.8,5525.9"
         style="fill:#fe8f00;fill-opacity:1;fill-rule:evenodd;stroke:none"
         id="path24" />
      <path
         d="m 11706.9,3603.4 c -393.5,749.5 -941.1,1734.4 -1688.6,3062.3 C 4382.88,6369.3 907.539,4967.2 907.539,3813.9 907.539,2600.3 5168.84,907.699 12108.3,907.699 c 6939.1,0 11200.6,1692.601 11200.6,2906.201 0,1153.3 -3475.1,2555.1 -9110.5,2851.8 -745.8,-1325.1 -1293.4,-2309.4 -1688,-3062.6 -169.3,-322.9 -633.6,-324.1 -803.5,0.3"
         style="fill:#fe8f00;fill-opacity:1;fill-rule:evenodd;stroke:none"
         id="path26" />
      <path
         d="m 12108.3,37820.1 c -5892.03,0 -10685.66,-4793.6 -10685.66,-10685.6 0,-4025.1 7422.07,-16365 10686.16,-22359 3262.9,5997.1 10685.4,18329.9 10685.4,22358.7 -0.6,5892.3 -4793.9,10685.9 -10685.9,10685.9 z m 0,-34460.2 c -168.8,0 -323.5,93.9 -401.7,243.2 C 8324.69,10055.1 514.945,22537.4 514.945,27134.5 514.945,33527 5715.8,38728 12108.3,38728 c 6392.5,0 11593.3,-5201 11593.3,-11593.5 0,-4584 -7808.8,-17088.3 -11191.5,-23531.1 -78.5,-149.3 -233,-243.5 -401.8,-243.5 v 0"
         style="fill:#673b8d;fill-opacity:1;fill-rule:evenodd;stroke:none"
         id="path28" />
      <path
         d="M 8149.7,11848.4 H 16067 c 399.9,720.5 767.4,1389.1 1111.5,2022.8 H 7038.55 c 342.12,-630.1 709.78,-1298.3 1111.15,-2022.8 z m 8184.2,-908 H 7882.69 c -164.98,0 -316.88,89.5 -396.9,233.6 -602.67,1084.7 -1128.85,2045 -1608.55,2935.7 -162.67,301.7 56.63,669.2 399.21,669.2 H 17939.4 c 343.5,0 561.4,-368.1 399.2,-669.2 -484.5,-899.3 -1010.5,-1859.4 -1608.6,-2935.7 -79.1,-143.8 -230.8,-233.6 -396.1,-233.6 v 0"
         style="fill:#673b8d;fill-opacity:1;fill-rule:evenodd;stroke:none"
         id="path30" />
      <path
         d="m 12108.3,35192.6 c -4318.72,0 -7832.23,-3513.5 -7832.23,-7832.2 0,-4318.8 3513.51,-7832.3 7832.23,-7832.3 4318.8,0 7832.3,3513.5 7832.3,7832.3 0,4318.7 -3513.5,7832.2 -7832.3,7832.2 z m 0,-16572.1 c -4819.2,0 -8739.92,3920.6 -8739.92,8739.9 0,4819.2 3920.72,8739.9 8739.92,8739.9 4819.3,0 8740,-3920.7 8740,-8739.9 0,-4819.2 -3920.7,-8739.9 -8740,-8739.9 v 0"
         style="fill:#673b8d;fill-opacity:1;fill-rule:evenodd;stroke:none"
         id="path32" />
      <path
         d="M 6557.16,14778.9 H 17659.6 c 2696,5008.8 5134.6,10046 5134.6,12355.3 -0.6,5892.3 -4793.9,10685.9 -10685.9,10685.9 -5892.03,0 -10685.66,-4793.6 -10685.66,-10685.6 0,-2307.1 2438.37,-7345.7 5134.52,-12355.6 z m 5551.14,21321.4 c 4819.3,0 8740,-3920.7 8740,-8739.9 0,-4819.2 -3920.7,-8739.9 -8740,-8739.9 -4819.2,0 -8739.92,3920.6 -8739.92,8739.9 0,4819.2 3920.72,8739.9 8739.92,8739.9 v 0"
         style="fill:#fe8f00;fill-opacity:1;fill-rule:evenodd;stroke:none"
         id="path34" />
      <path
         d="M 17168,13871.2 H 7048.56 c 370.28,-680.2 742.71,-1356.8 1112.23,-2022.8 h 7894.81 c 369.7,666 742.1,1342.6 1112.4,2022.8"
         style="fill:#fe8f00;fill-opacity:1;fill-rule:evenodd;stroke:none"
         id="path36" />
    </g>
  </g>
</svg>
