<svg width="41" height="36" viewBox="0 0 41 36" fill="none" xmlns="http://www.w3.org/2000/svg">
<path d="M20.5 28.125C19.7398 28.125 18.9966 28.3229 18.3645 28.6938C17.7324 29.0646 17.2398 29.5917 16.9488 30.2084C16.6579 30.8251 16.5818 31.5037 16.7301 32.1584C16.8784 32.8131 17.2445 33.4145 17.7821 33.8865C18.3196 34.3585 19.0045 34.6799 19.7501 34.8102C20.4957 34.9404 21.2686 34.8735 21.9709 34.6181C22.6733 34.3626 23.2736 33.9301 23.696 33.375C24.1183 32.82 24.3438 32.1675 24.3438 31.5C24.3438 30.6049 23.9388 29.7464 23.2179 29.1135C22.4971 28.4806 21.5194 28.125 20.5 28.125ZM20.5 19.125C19.7398 19.125 18.9966 19.3229 18.3645 19.6938C17.7324 20.0646 17.2398 20.5917 16.9488 21.2084C16.6579 21.8251 16.5818 22.5037 16.7301 23.1584C16.8784 23.8131 17.2445 24.4145 17.7821 24.8865C18.3196 25.3585 19.0045 25.6799 19.7501 25.8102C20.4957 25.9404 21.2686 25.8735 21.9709 25.6181C22.6733 25.3626 23.2736 24.9301 23.696 24.375C24.1183 23.82 24.3438 23.1675 24.3438 22.5C24.3438 21.6049 23.9388 20.7464 23.2179 20.1135C22.4971 19.4806 21.5194 19.125 20.5 19.125ZM20.5 10.125C19.7398 10.125 18.9966 10.3229 18.3645 10.6938C17.7324 11.0646 17.2398 11.5917 16.9488 12.2084C16.6579 12.8251 16.5818 13.5037 16.7301 14.1584C16.8784 14.8131 17.2445 15.4145 17.7821 15.8865C18.3196 16.3585 19.0045 16.6799 19.7501 16.8102C20.4957 16.9404 21.2686 16.8735 21.9709 16.6181C22.6733 16.3626 23.2736 15.9301 23.696 15.375C24.1183 14.82 24.3438 14.1675 24.3438 13.5C24.3438 12.6049 23.9388 11.7464 23.2179 11.1135C22.4971 10.4806 21.5194 10.125 20.5 10.125ZM20.5 1.125C19.7398 1.125 18.9966 1.32294 18.3645 1.69379C17.7324 2.06464 17.2398 2.59174 16.9488 3.20844C16.6579 3.82514 16.5818 4.50374 16.7301 5.15843C16.8784 5.81312 17.2445 6.41448 17.7821 6.88649C18.3196 7.35849 19.0045 7.67992 19.7501 7.81015C20.4957 7.94038 21.2686 7.87354 21.9709 7.61809C22.6733 7.36265 23.2736 6.93007 23.696 6.37505C24.1183 5.82003 24.3438 5.16751 24.3438 4.5C24.3438 3.60489 23.9388 2.74645 23.2179 2.11351C22.4971 1.48058 21.5194 1.125 20.5 1.125ZM30.75 19.125C29.9898 19.125 29.2466 19.3229 28.6145 19.6938C27.9824 20.0646 27.4898 20.5917 27.1988 21.2084C26.9079 21.8251 26.8318 22.5037 26.9801 23.1584C27.1284 23.8131 27.4945 24.4145 28.0321 24.8865C28.5696 25.3585 29.2545 25.6799 30.0001 25.8102C30.7457 25.9404 31.5186 25.8735 32.2209 25.6181C32.9233 25.3626 33.5236 24.9301 33.946 24.375C34.3683 23.82 34.5938 23.1675 34.5938 22.5C34.5938 21.6049 34.1888 20.7464 33.4679 20.1135C32.7471 19.4806 31.7694 19.125 30.75 19.125ZM30.75 10.125C29.9898 10.125 29.2466 10.3229 28.6145 10.6938C27.9824 11.0646 27.4898 11.5917 27.1988 12.2084C26.9079 12.8251 26.8318 13.5037 26.9801 14.1584C27.1284 14.8131 27.4945 15.4145 28.0321 15.8865C28.5696 16.3585 29.2545 16.6799 30.0001 16.8102C30.7457 16.9404 31.5186 16.8735 32.2209 16.6181C32.9233 16.3626 33.5236 15.9301 33.946 15.375C34.3683 14.82 34.5938 14.1675 34.5938 13.5C34.5938 12.6049 34.1888 11.7464 33.4679 11.1135C32.7471 10.4806 31.7694 10.125 30.75 10.125ZM30.75 1.125C29.9898 1.125 29.2466 1.32294 28.6145 1.69379C27.9824 2.06464 27.4898 2.59174 27.1988 3.20844C26.9079 3.82514 26.8318 4.50374 26.9801 5.15843C27.1284 5.81312 27.4945 6.41448 28.0321 6.88649C28.5696 7.35849 29.2545 7.67992 30.0001 7.81015C30.7457 7.94038 31.5186 7.87354 32.2209 7.61809C32.9233 7.36265 33.5236 6.93007 33.946 6.37505C34.3683 5.82003 34.5938 5.16751 34.5938 4.5C34.5938 3.60489 34.1888 2.74645 33.4679 2.11351C32.7471 1.48058 31.7694 1.125 30.75 1.125ZM10.25 19.125C9.48978 19.125 8.74663 19.3229 8.11453 19.6938C7.48243 20.0646 6.98976 20.5917 6.69884 21.2084C6.40792 21.8251 6.3318 22.5037 6.48011 23.1584C6.62842 23.8131 6.9945 24.4145 7.53206 24.8865C8.06962 25.3585 8.75451 25.6799 9.50012 25.8102C10.2457 25.9404 11.0186 25.8735 11.7209 25.6181C12.4233 25.3626 13.0236 24.9301 13.446 24.375C13.8683 23.82 14.0938 23.1675 14.0938 22.5C14.0938 21.6049 13.6888 20.7464 12.9679 20.1135C12.2471 19.4806 11.2694 19.125 10.25 19.125ZM10.25 10.125C9.48978 10.125 8.74663 10.3229 8.11453 10.6938C7.48243 11.0646 6.98976 11.5917 6.69884 12.2084C6.40792 12.8251 6.3318 13.5037 6.48011 14.1584C6.62842 14.8131 6.9945 15.4145 7.53206 15.8865C8.06962 16.3585 8.75451 16.6799 9.50012 16.8102C10.2457 16.9404 11.0186 16.8735 11.7209 16.6181C12.4233 16.3626 13.0236 15.9301 13.446 15.375C13.8683 14.82 14.0938 14.1675 14.0938 13.5C14.0938 12.6049 13.6888 11.7464 12.9679 11.1135C12.2471 10.4806 11.2694 10.125 10.25 10.125ZM10.25 1.125C9.48978 1.125 8.74663 1.32294 8.11453 1.69379C7.48243 2.06464 6.98976 2.59174 6.69884 3.20844C6.40792 3.82514 6.3318 4.50374 6.48011 5.15843C6.62842 5.81312 6.9945 6.41448 7.53206 6.88649C8.06962 7.35849 8.75451 7.67992 9.50012 7.81015C10.2457 7.94038 11.0186 7.87354 11.7209 7.61809C12.4233 7.36265 13.0236 6.93007 13.446 6.37505C13.8683 5.82003 14.0938 5.16751 14.0938 4.5C14.0938 3.60489 13.6888 2.74645 12.9679 2.11351C12.2471 1.48058 11.2694 1.125 10.25 1.125Z" fill="#E53E3E"/>
</svg>
