<svg width="40" height="39" viewBox="0 0 40 39" fill="none" xmlns="http://www.w3.org/2000/svg">
<path d="M24.9 30.6875L20 27.8763L15.1 30.6875L16.4 25.26L12.0833 21.62L17.7666 21.1488L20 16.0625L22.2333 21.1488L27.9166 21.62L23.6 25.26M33.3333 2.25H6.66665V5.5L14.7666 11.415C11.9407 12.5908 9.61791 14.6822 8.19121 17.3354C6.7645 19.9886 6.32142 23.0408 6.93688 25.9758C7.55234 28.9108 9.18858 31.5485 11.5689 33.4428C13.9492 35.3371 16.9274 36.3718 20 36.3718C23.0725 36.3718 26.0508 35.3371 28.4311 33.4428C30.8114 31.5485 32.4476 28.9108 33.0631 25.9758C33.6785 23.0408 33.2355 19.9886 31.8088 17.3354C30.3821 14.6822 28.0593 12.5908 25.2333 11.415L33.3333 5.5M30 23.375C30.0009 25.2214 29.464 27.0302 28.4518 28.5908C27.4396 30.1513 25.9937 31.3996 24.2824 32.1903C22.571 32.9811 20.6645 33.2817 18.7848 33.0573C16.905 32.8329 15.1293 32.0927 13.6641 30.9229C12.1989 29.753 11.1046 28.2015 10.5084 26.4489C9.91224 24.6963 9.83874 22.8148 10.2965 21.023C10.7542 19.2313 11.7243 17.6032 13.094 16.328C14.4636 15.0529 16.1765 14.1831 18.0333 13.82C19.331 13.5617 20.6689 13.5617 21.9666 13.82C24.2315 14.2629 26.2693 15.4567 27.7337 17.1985C29.1981 18.9404 29.9989 21.1228 30 23.375ZM21.05 10.375H18.95L12.2833 5.5H27.85L21.05 10.375Z" fill="#D69E2E"/>
</svg>
