<svg width="26" height="32" viewBox="0 0 26 32" fill="none" xmlns="http://www.w3.org/2000/svg">
    <path d="M17.6551 26.4376L13.0001 23.9147L8.34506 26.4376L9.58006 21.5667L5.47923 18.3001L10.8784 17.8772L13.0001 13.3126L15.1217 17.8772L20.5209 18.3001L16.4201 21.5667M25.6667 0.916748H0.333393V3.83341L8.02839 9.14175C5.34371 10.197 3.13709 12.0738 1.78172 14.4549C0.426358 16.836 0.00542411 19.5751 0.590113 22.2091C1.1748 24.8431 2.72923 27.2103 4.99051 28.9103C7.25179 30.6103 10.0811 31.5389 13.0001 31.5389C15.919 31.5389 18.7483 30.6103 21.0096 28.9103C23.2709 27.2103 24.8253 24.8431 25.41 22.2091C25.9947 19.5751 25.5738 16.836 24.2184 14.4549C22.863 12.0738 20.6564 10.197 17.9717 9.14175L25.6667 3.83341M22.5001 19.8751C22.5009 21.5322 21.9909 23.1554 21.0293 24.5559C20.0677 25.9564 18.6941 27.0767 17.0683 27.7863C15.4425 28.4959 13.6314 28.7657 11.8456 28.5644C10.0598 28.363 8.37287 27.6987 6.98096 26.6488C5.58905 25.5989 4.54943 24.2065 3.98307 22.6337C3.41671 21.0609 3.34688 19.3723 3.78172 17.7644C4.21655 16.1564 5.13817 14.6953 6.43935 13.5509C7.74053 12.4065 9.36776 11.626 11.1317 11.3001C12.3646 11.0683 13.6355 11.0683 14.8684 11.3001C17.02 11.6976 18.9559 12.7689 20.3471 14.3321C21.7383 15.8953 22.499 17.8538 22.5001 19.8751ZM13.9976 8.20841H12.0026L5.66923 3.83341H20.4576L13.9976 8.20841Z" fill="#898989"/>
</svg>
