<svg width="235" height="246" viewBox="0 0 235 246" fill="none" xmlns="http://www.w3.org/2000/svg">
<g clip-path="url(#clip0_1048_23838)">
<path fill-rule="evenodd" clip-rule="evenodd" d="M117.025 223.522C169.601 223.815 212.459 181.432 212.753 128.856C213.046 76.2809 170.663 33.4223 118.087 33.129C65.512 32.8357 22.6533 75.2187 22.36 127.794C22.0667 180.37 64.4498 223.228 117.025 223.522Z" stroke="#3182CE" stroke-width="0.641063" stroke-dasharray="3.85 3.85"/>
<path fill-rule="evenodd" clip-rule="evenodd" d="M116.913 243.715C180.64 244.07 232.59 192.697 232.946 128.969C233.301 65.2414 181.928 13.2915 118.2 12.936C54.4722 12.5804 2.52234 63.9539 2.16681 127.682C1.81128 191.41 53.1847 243.359 116.913 243.715Z" stroke="#E53E3E" stroke-width="0.641063" stroke-dasharray="3.85 3.85"/>
<path d="M194.579 165.517C194.657 152.083 184.499 140.796 171.13 139.464C157.762 138.131 145.576 147.191 143.001 160.377L63.0131 157.761L63.8146 171.51C63.8146 171.51 52.2602 197.768 112.176 205.115L112.027 231.719L181.338 232.106L181.585 187.873C189.575 183.254 194.52 174.747 194.579 165.517Z" fill="url(#paint0_linear_1048_23838)"/>
<path d="M66.5583 172.102C66.5583 172.102 55.4942 197.247 112.873 204.292L112.73 229.78L179.108 230.151L179.485 162.651L65.7792 158.933L66.5583 172.102Z" fill="#E5BAAB"/>
<path d="M100.32 67.0998C96.6848 72.7653 89.157 74.4318 83.4706 70.8298L47.9623 47.146C42.2969 43.5112 40.6304 35.9834 44.2323 30.297C47.8665 24.6394 55.3847 22.9737 61.0685 26.567L96.5768 50.2508C102.247 53.8813 103.919 61.4101 100.32 67.0998Z" fill="url(#paint1_linear_1048_23838)"/>
<path d="M98.3525 65.8068C94.9738 71.0729 87.9766 72.6221 82.6909 69.2741L49.6736 47.2422C44.4074 43.8636 42.8583 36.8664 46.2062 31.5807C49.5848 26.3145 56.582 24.7654 61.8677 28.1133L94.8787 50.1324C100.155 53.5095 101.708 60.5168 98.3525 65.8068Z" fill="#E5BAAB"/>
<path d="M166.725 191.149C180.492 191.226 191.715 180.128 191.792 166.361C191.869 152.594 180.771 141.371 167.004 141.295C153.237 141.218 142.014 152.316 141.937 166.083C141.86 179.85 152.959 191.072 166.725 191.149Z" fill="#E5BAAB"/>
<path d="M163.294 1.78608L67.8032 1.25335C65.6346 1.24125 63.8669 2.98938 63.8548 5.15789L62.858 183.839C62.8459 186.007 64.594 187.775 66.7625 187.787L162.254 188.32C164.422 188.332 166.19 186.584 166.202 184.415L167.199 5.73443C167.211 3.56592 165.463 1.79818 163.294 1.78608Z" fill="url(#paint2_linear_1048_23838)"/>
<path d="M161.434 4.29827L69.6289 3.78611C67.2144 3.77264 65.246 5.71912 65.2326 8.1337L64.2688 180.885C64.2553 183.299 66.2018 185.268 68.6164 185.281L160.422 185.793C162.836 185.807 164.804 183.86 164.818 181.446L165.782 8.69465C165.795 6.28007 163.849 4.31175 161.434 4.29827Z" fill="white"/>
<path d="M140.767 8.73447C140.144 12.7082 136.715 15.6333 132.692 15.6226L97.9666 15.4289C93.9457 15.3931 90.5516 12.4304 89.9729 8.4511L71.5747 8.34846C70.5617 8.34281 69.5876 8.73836 68.867 9.45037C68.1464 10.1624 67.7384 11.1316 67.7327 12.1446L66.8136 176.895C66.808 177.908 67.2035 178.882 67.9155 179.603C68.6275 180.323 69.5968 180.732 70.6098 180.737L158.479 181.227C159.492 181.233 160.466 180.837 161.187 180.125C161.907 179.413 162.315 178.444 162.321 177.431L163.24 12.6806C163.246 11.6676 162.85 10.6936 162.138 9.97298C161.426 9.25238 160.457 8.84432 159.444 8.83867L140.767 8.73447Z" fill="#E0E0E0"/>
<path d="M126.2 10.8233L105.074 10.7055C104.72 10.7035 104.431 10.9889 104.429 11.343L104.428 11.4616C104.426 11.8156 104.712 12.1042 105.066 12.1062L126.192 12.224C126.546 12.226 126.834 11.9406 126.836 11.5866L126.837 11.468C126.839 11.1139 126.554 10.8253 126.2 10.8233Z" fill="#DBDBDB"/>
<path d="M131.591 12.4588C132.168 12.462 132.638 11.9971 132.642 11.4204C132.645 10.8437 132.18 10.3735 131.603 10.3703C131.026 10.3671 130.556 10.832 130.553 11.4088C130.55 11.9855 131.015 12.4556 131.591 12.4588Z" fill="#DBDBDB"/>
<path d="M182.953 170.709C175.709 172.342 170.771 167.596 169.138 160.356L152.86 98.5395C151.246 91.2711 155.804 84.0638 163.063 82.4061C170.331 80.7927 177.538 85.3507 179.196 92.609L192.407 156.001C194.04 163.245 190.193 169.077 182.953 170.709Z" fill="url(#paint3_linear_1048_23838)"/>
<path d="M177.322 94.1096C175.946 87.9978 169.876 84.1588 163.764 85.5351C157.652 86.9114 153.813 92.9817 155.189 99.0936L170.106 165.333C171.482 171.445 177.552 175.284 183.664 173.908C189.776 172.531 193.615 166.461 192.238 160.349L177.322 94.1096Z" fill="#E5BAAB"/>
<path d="M191.376 221.879L96.5005 221.349L96.3771 243.466L191.253 243.995L191.376 221.879Z" fill="url(#paint4_linear_1048_23838)"/>
<path d="M188.798 224.429L99.0505 223.928L98.954 241.236L188.701 241.737L188.798 224.429Z" fill="#1E7C4D"/>
<path d="M86.1163 133.237C82.5257 138.835 75.0879 140.482 69.4696 136.923L45.6542 121.325C40.0561 117.734 38.409 110.296 41.9679 104.678C45.5585 99.0796 52.9964 97.4326 58.6147 100.991L82.4301 116.59C88.0282 120.181 89.6752 127.619 86.1163 133.237Z" fill="url(#paint5_linear_1048_23838)"/>
<path d="M79.9335 165.939C76.3109 171.588 68.8053 173.251 63.1358 169.659L48.391 158.781C42.7415 155.159 41.079 147.653 44.6703 141.984C48.2929 136.334 55.7985 134.672 61.4679 138.263L76.2128 149.144C81.8603 152.767 83.5226 160.27 79.9335 165.939Z" fill="url(#paint6_linear_1048_23838)"/>
<g opacity="0.5">
<path d="M114.865 123.618C130.786 123.707 143.765 110.872 143.853 94.9506C143.942 79.0292 131.108 66.0504 115.186 65.9616C99.2648 65.8728 86.286 78.7076 86.1972 94.6289C86.1084 110.55 98.9432 123.529 114.865 123.618Z" fill="url(#paint7_linear_1048_23838)"/>
</g>
<path d="M114.874 121.922C129.859 122.006 142.074 109.926 142.158 94.9409C142.241 79.956 130.162 67.7406 115.177 67.657C100.192 67.5734 87.9763 79.6533 87.8927 94.6382C87.8091 109.623 99.889 121.839 114.874 121.922Z" fill="#4ABD6F"/>
<path d="M103.269 91.102L113.391 100.486L127.923 79.3701L132.989 83.639L113.343 108.967L99.0193 92.7771L103.269 91.102Z" fill="white"/>
<path d="M78.7423 165.128C75.3637 170.394 68.3665 171.943 63.0808 168.595L49.3286 158.466C44.0625 155.088 42.5133 148.091 45.8613 142.805C49.2399 137.539 56.2371 135.989 61.5228 139.337L75.2717 149.485C80.5272 152.862 82.0766 159.845 78.7423 165.128Z" fill="#E5BAAB"/>
<path d="M84.8069 132.38C81.4283 137.647 74.4311 139.196 69.1454 135.848L46.7384 121.17C41.4723 117.792 39.9231 110.795 43.271 105.509C46.6496 100.243 53.6468 98.6936 58.9326 102.042L81.3395 116.719C86.6057 120.097 88.1548 127.095 84.8069 132.38Z" fill="#E5BAAB"/>
<path d="M92.4778 100.69C88.8695 106.313 81.3981 107.966 75.754 104.392L45.5743 84.5008C39.9516 80.8925 38.2978 73.4212 41.8724 67.777C45.4807 62.1544 52.9521 60.5006 58.5962 64.0752L88.776 83.9661C94.3986 87.5745 96.0524 95.0458 92.4778 100.69Z" fill="url(#paint8_linear_1048_23838)"/>
<path d="M90.8744 99.6553C87.4958 104.921 80.4986 106.471 75.2129 103.123L46.9462 84.4924C41.68 81.1138 40.1309 74.1166 43.4788 68.8309C46.8574 63.5648 53.8546 62.0156 59.1403 65.3635L87.4039 83.9937C92.6711 87.3713 94.2218 94.3687 90.8744 99.6553Z" fill="#E5BAAB"/>
</g>
<defs>
<linearGradient id="paint0_linear_1048_23838" x1="128.409" y1="231.826" x2="128.926" y2="139.117" gradientUnits="userSpaceOnUse">
<stop stop-color="#808080" stop-opacity="0.25"/>
<stop offset="0.54" stop-color="#808080" stop-opacity="0.12"/>
<stop offset="1" stop-color="#808080" stop-opacity="0.1"/>
</linearGradient>
<linearGradient id="paint1_linear_1048_23838" x1="72.1392" y1="72.6353" x2="72.4063" y2="24.7679" gradientUnits="userSpaceOnUse">
<stop stop-color="#808080" stop-opacity="0.25"/>
<stop offset="0.54" stop-color="#808080" stop-opacity="0.12"/>
<stop offset="1" stop-color="#808080" stop-opacity="0.1"/>
</linearGradient>
<linearGradient id="paint2_linear_1048_23838" x1="114.508" y1="188.05" x2="115.549" y2="1.51651" gradientUnits="userSpaceOnUse">
<stop stop-color="#808080" stop-opacity="0.25"/>
<stop offset="0.54" stop-color="#808080" stop-opacity="0.12"/>
<stop offset="1" stop-color="#808080" stop-opacity="0.1"/>
</linearGradient>
<linearGradient id="paint3_linear_1048_23838" x1="172.412" y1="170.984" x2="172.908" y2="82.1149" gradientUnits="userSpaceOnUse">
<stop stop-color="#808080" stop-opacity="0.25"/>
<stop offset="0.54" stop-color="#808080" stop-opacity="0.12"/>
<stop offset="1" stop-color="#808080" stop-opacity="0.1"/>
</linearGradient>
<linearGradient id="paint4_linear_1048_23838" x1="143.821" y1="243.724" x2="143.945" y2="221.608" gradientUnits="userSpaceOnUse">
<stop stop-color="#808080" stop-opacity="0.25"/>
<stop offset="0.54" stop-color="#808080" stop-opacity="0.12"/>
<stop offset="1" stop-color="#808080" stop-opacity="0.1"/>
</linearGradient>
<linearGradient id="paint5_linear_1048_23838" x1="63.927" y1="138.735" x2="64.1476" y2="99.1825" gradientUnits="userSpaceOnUse">
<stop stop-color="#808080" stop-opacity="0.25"/>
<stop offset="0.54" stop-color="#808080" stop-opacity="0.12"/>
<stop offset="1" stop-color="#808080" stop-opacity="0.1"/>
</linearGradient>
<linearGradient id="paint6_linear_1048_23838" x1="62.2056" y1="171.513" x2="62.4014" y2="136.406" gradientUnits="userSpaceOnUse">
<stop stop-color="#808080" stop-opacity="0.25"/>
<stop offset="0.54" stop-color="#808080" stop-opacity="0.12"/>
<stop offset="1" stop-color="#808080" stop-opacity="0.1"/>
</linearGradient>
<linearGradient id="paint7_linear_1048_23838" x1="114.865" y1="123.618" x2="115.186" y2="65.9584" gradientUnits="userSpaceOnUse">
<stop stop-color="#808080" stop-opacity="0.25"/>
<stop offset="0.54" stop-color="#808080" stop-opacity="0.12"/>
<stop offset="1" stop-color="#808080" stop-opacity="0.1"/>
</linearGradient>
<linearGradient id="paint8_linear_1048_23838" x1="67.0509" y1="106.206" x2="67.296" y2="62.2838" gradientUnits="userSpaceOnUse">
<stop stop-color="#808080" stop-opacity="0.25"/>
<stop offset="0.54" stop-color="#808080" stop-opacity="0.12"/>
<stop offset="1" stop-color="#808080" stop-opacity="0.1"/>
</linearGradient>
<clipPath id="clip0_1048_23838">
<rect width="232.871" height="243.314" fill="white" transform="translate(1.82996 0.885254) rotate(0.31964)"/>
</clipPath>
</defs>
</svg>
