<svg width="40" height="40" viewBox="0 0 40 40" fill="none" xmlns="http://www.w3.org/2000/svg">
<path d="M14.3409 30.2727H8.43182C8.04002 30.2727 7.66427 30.1291 7.38723 29.8733C7.11019 29.6176 6.95455 29.2708 6.95455 28.9091V23.4545C6.95455 23.0929 6.7989 22.746 6.52186 22.4903C6.24482 22.2346 5.86907 22.0909 5.47727 22.0909C5.08548 22.0909 4.70973 22.2346 4.43268 22.4903C4.15564 22.746 4 23.0929 4 23.4545V28.9091C4 29.9941 4.46692 31.0346 5.29805 31.8018C6.12918 32.569 7.25643 33 8.43182 33H14.3409C14.7327 33 15.1085 32.8563 15.3855 32.6006C15.6625 32.3449 15.8182 31.998 15.8182 31.6364C15.8182 31.2747 15.6625 30.9279 15.3855 30.6721C15.1085 30.4164 14.7327 30.2727 14.3409 30.2727ZM35.0227 22.0909C34.6309 22.0909 34.2552 22.2346 33.9781 22.4903C33.7011 22.746 33.5455 23.0929 33.5455 23.4545V28.9091C33.5455 29.2708 33.3898 29.6176 33.1128 29.8733C32.8357 30.1291 32.46 30.2727 32.0682 30.2727H26.1591C25.7673 30.2727 25.3915 30.4164 25.1145 30.6721C24.8375 30.9279 24.6818 31.2747 24.6818 31.6364C24.6818 31.998 24.8375 32.3449 25.1145 32.6006C25.3915 32.8563 25.7673 33 26.1591 33H32.0682C33.2436 33 34.3708 32.569 35.2019 31.8018C36.0331 31.0346 36.5 29.9941 36.5 28.9091V23.4545C36.5 23.0929 36.3444 22.746 36.0673 22.4903C35.7903 22.2346 35.4145 22.0909 35.0227 22.0909ZM32.0682 3H26.1591C25.7673 3 25.3915 3.14367 25.1145 3.3994C24.8375 3.65513 24.6818 4.00198 24.6818 4.36364C24.6818 4.7253 24.8375 5.07214 25.1145 5.32787C25.3915 5.5836 25.7673 5.72727 26.1591 5.72727H32.0682C32.46 5.72727 32.8357 5.87094 33.1128 6.12667C33.3898 6.3824 33.5455 6.72925 33.5455 7.09091V12.5455C33.5455 12.9071 33.7011 13.254 33.9781 13.5097C34.2552 13.7654 34.6309 13.9091 35.0227 13.9091C35.4145 13.9091 35.7903 13.7654 36.0673 13.5097C36.3444 13.254 36.5 12.9071 36.5 12.5455V7.09091C36.5 6.00593 36.0331 4.96539 35.2019 4.1982C34.3708 3.43101 33.2436 3 32.0682 3ZM5.47727 13.9091C5.86907 13.9091 6.24482 13.7654 6.52186 13.5097C6.7989 13.254 6.95455 12.9071 6.95455 12.5455V7.09091C6.95455 6.72925 7.11019 6.3824 7.38723 6.12667C7.66427 5.87094 8.04002 5.72727 8.43182 5.72727H14.3409C14.7327 5.72727 15.1085 5.5836 15.3855 5.32787C15.6625 5.07214 15.8182 4.7253 15.8182 4.36364C15.8182 4.00198 15.6625 3.65513 15.3855 3.3994C15.1085 3.14367 14.7327 3 14.3409 3H8.43182C7.25643 3 6.12918 3.43101 5.29805 4.1982C4.46692 4.96539 4 6.00593 4 7.09091V12.5455C4 12.9071 4.15564 13.254 4.43268 13.5097C4.70973 13.7654 5.08548 13.9091 5.47727 13.9091ZM17.2955 8.45455H11.3864C10.9946 8.45455 10.6188 8.59821 10.3418 8.85395C10.0647 9.10968 9.90909 9.45652 9.90909 9.81818V15.2727C9.90909 15.6344 10.0647 15.9812 10.3418 16.237C10.6188 16.4927 10.9946 16.6364 11.3864 16.6364H17.2955C17.6873 16.6364 18.063 16.4927 18.34 16.237C18.6171 15.9812 18.7727 15.6344 18.7727 15.2727V9.81818C18.7727 9.45652 18.6171 9.10968 18.34 8.85395C18.063 8.59821 17.6873 8.45455 17.2955 8.45455ZM15.8182 13.9091H12.8636V11.1818H15.8182V13.9091ZM23.2045 16.6364H29.1136C29.5054 16.6364 29.8812 16.4927 30.1582 16.237C30.4353 15.9812 30.5909 15.6344 30.5909 15.2727V9.81818C30.5909 9.45652 30.4353 9.10968 30.1582 8.85395C29.8812 8.59821 29.5054 8.45455 29.1136 8.45455H23.2045C22.8127 8.45455 22.437 8.59821 22.16 8.85395C21.8829 9.10968 21.7273 9.45652 21.7273 9.81818V15.2727C21.7273 15.6344 21.8829 15.9812 22.16 16.237C22.437 16.4927 22.8127 16.6364 23.2045 16.6364ZM24.6818 11.1818H27.6364V13.9091H24.6818V11.1818ZM17.2955 19.3636H11.3864C10.9946 19.3636 10.6188 19.5073 10.3418 19.763C10.0647 20.0188 9.90909 20.3656 9.90909 20.7273V26.1818C9.90909 26.5435 10.0647 26.8903 10.3418 27.1461C10.6188 27.4018 10.9946 27.5455 11.3864 27.5455H17.2955C17.6873 27.5455 18.063 27.4018 18.34 27.1461C18.6171 26.8903 18.7727 26.5435 18.7727 26.1818V20.7273C18.7727 20.3656 18.6171 20.0188 18.34 19.763C18.063 19.5073 17.6873 19.3636 17.2955 19.3636ZM15.8182 24.8182H12.8636V22.0909H15.8182V24.8182ZM23.2045 23.4545C23.5963 23.4545 23.9721 23.3109 24.2491 23.0551C24.5262 22.7994 24.6818 22.4526 24.6818 22.0909C25.0736 22.0909 25.4494 21.9472 25.7264 21.6915C26.0034 21.4358 26.1591 21.0889 26.1591 20.7273C26.1591 20.3656 26.0034 20.0188 25.7264 19.763C25.4494 19.5073 25.0736 19.3636 24.6818 19.3636H23.2045C22.8127 19.3636 22.437 19.5073 22.16 19.763C21.8829 20.0188 21.7273 20.3656 21.7273 20.7273V22.0909C21.7273 22.4526 21.8829 22.7994 22.16 23.0551C22.437 23.3109 22.8127 23.4545 23.2045 23.4545ZM29.1136 19.3636C28.7218 19.3636 28.3461 19.5073 28.069 19.763C27.792 20.0188 27.6364 20.3656 27.6364 20.7273V24.8182C27.2446 24.8182 26.8688 24.9618 26.5918 25.2176C26.3147 25.4733 26.1591 25.8202 26.1591 26.1818C26.1591 26.5435 26.3147 26.8903 26.5918 27.1461C26.8688 27.4018 27.2446 27.5455 27.6364 27.5455H29.1136C29.5054 27.5455 29.8812 27.4018 30.1582 27.1461C30.4353 26.8903 30.5909 26.5435 30.5909 26.1818V20.7273C30.5909 20.3656 30.4353 20.0188 30.1582 19.763C29.8812 19.5073 29.5054 19.3636 29.1136 19.3636ZM23.2045 24.8182C22.9124 24.8182 22.6268 24.8982 22.3838 25.048C22.1409 25.1978 21.9515 25.4108 21.8397 25.66C21.7279 25.9092 21.6987 26.1833 21.7557 26.4479C21.8127 26.7124 21.9534 26.9553 22.16 27.1461C22.3666 27.3368 22.6298 27.4666 22.9163 27.5193C23.2029 27.5719 23.4999 27.5449 23.7699 27.4417C24.0398 27.3384 24.2705 27.1637 24.4328 26.9394C24.5952 26.7152 24.6818 26.4515 24.6818 26.1818C24.6818 25.8202 24.5262 25.4733 24.2491 25.2176C23.9721 24.9618 23.5963 24.8182 23.2045 24.8182Z" stroke="#4ABD6F" stroke-width="1.5"/>
</svg>
