<svg width="36" height="33" viewBox="0 0 36 33" fill="none" xmlns="http://www.w3.org/2000/svg">
<path fill-rule="evenodd" clip-rule="evenodd" d="M4.56686 0.179199C3.40749 0.179199 2.2956 0.601379 1.4758 1.35286C0.655994 2.10435 0.195435 3.12358 0.195435 4.18634V7.54527C0.195435 7.77743 0.245319 8.00731 0.342238 8.2218C0.439158 8.43629 0.581216 8.63117 0.7603 8.79533C0.939384 8.95949 1.15199 9.08971 1.38597 9.17856C1.61996 9.2674 1.87074 9.31313 2.12401 9.31313C2.37727 9.31313 2.62805 9.2674 2.86204 9.17856C3.09602 9.08971 3.30863 8.95949 3.48771 8.79533C3.6668 8.63117 3.80885 8.43629 3.90577 8.2218C4.00269 8.00731 4.05258 7.77743 4.05258 7.54527V4.18634C4.05258 4.06131 4.10676 3.9414 4.20321 3.85299C4.29966 3.76458 4.43047 3.71491 4.56686 3.71491H8.23115C8.48441 3.71491 8.7352 3.66919 8.96918 3.58034C9.20317 3.4915 9.41577 3.36128 9.59485 3.19712C9.77394 3.03296 9.916 2.83807 10.0129 2.62359C10.1098 2.4091 10.1597 2.17921 10.1597 1.94706C10.1597 1.7149 10.1098 1.48501 10.0129 1.27053C9.916 1.05604 9.77394 0.861153 9.59485 0.696993C9.41577 0.532832 9.20317 0.402612 8.96918 0.313769C8.7352 0.224926 8.48441 0.179199 8.23115 0.179199H4.56686ZM10.2754 6.47277C8.50115 6.47277 7.06115 7.79277 7.06115 9.4192V14.3056C7.06115 15.932 8.50115 17.252 10.2754 17.252H15.606C17.3803 17.252 18.8203 15.932 18.8203 14.3056V9.4192C18.8203 7.79277 17.3803 6.47277 15.606 6.47277H10.2754ZM10.9183 13.7163V10.0085H14.9631V13.7163H10.9183ZM25.8403 1.94706C25.8403 1.47819 26.0435 1.02853 26.4052 0.696993C26.7668 0.365455 27.2574 0.179199 27.7689 0.179199H31.4331C32.5925 0.179199 33.7044 0.601379 34.5242 1.35286C35.344 2.10435 35.8046 3.12358 35.8046 4.18634V7.54527C35.8046 8.01413 35.6014 8.4638 35.2397 8.79533C34.878 9.12687 34.3875 9.31313 33.876 9.31313C33.3645 9.31313 32.874 9.12687 32.5123 8.79533C32.1506 8.4638 31.9474 8.01413 31.9474 7.54527V4.18634C31.9474 4.06131 31.8932 3.9414 31.7968 3.85299C31.7004 3.76458 31.5695 3.71491 31.4331 3.71491H27.7689C27.2574 3.71491 26.7668 3.52866 26.4052 3.19712C26.0435 2.86558 25.8403 2.41592 25.8403 1.94706ZM4.05258 25.4572C4.05258 24.9883 3.84939 24.5387 3.48771 24.2071C3.12603 23.8756 2.63549 23.6893 2.12401 23.6893C1.61252 23.6893 1.12198 23.8756 0.7603 24.2071C0.398623 24.5387 0.195435 24.9883 0.195435 25.4572V28.8161C0.195435 29.8789 0.655994 30.8981 1.4758 31.6496C2.2956 32.4011 3.40749 32.8233 4.56686 32.8233H8.23115C8.74264 32.8233 9.23318 32.637 9.59485 32.3055C9.95653 31.9739 10.1597 31.5243 10.1597 31.0554C10.1597 30.5865 9.95653 30.1369 9.59485 29.8053C9.23318 29.4738 8.74264 29.2876 8.23115 29.2876H4.56686C4.43047 29.2876 4.29966 29.2379 4.20321 29.1495C4.10676 29.0611 4.05258 28.9412 4.05258 28.8161V25.4572ZM33.876 23.6893C34.3875 23.6893 34.878 23.8756 35.2397 24.2071C35.6014 24.5387 35.8046 24.9883 35.8046 25.4572V28.8161C35.8046 29.8789 35.344 30.8981 34.5242 31.6496C33.7044 32.4011 32.5925 32.8233 31.4331 32.8233H27.7689C27.2574 32.8233 26.7668 32.637 26.4052 32.3055C26.0435 31.9739 25.8403 31.5243 25.8403 31.0554C25.8403 30.5865 26.0435 30.1369 26.4052 29.8053C26.7668 29.4738 27.2574 29.2876 27.7689 29.2876H31.4331C31.5695 29.2876 31.7004 29.2379 31.7968 29.1495C31.8932 29.0611 31.9474 28.9412 31.9474 28.8161V25.4572C31.9474 24.9883 32.1506 24.5387 32.5123 24.2071C32.874 23.8756 33.3645 23.6893 33.876 23.6893ZM10.9183 21.6622C10.9183 21.1933 10.7151 20.7437 10.3534 20.4121C9.99175 20.0806 9.50121 19.8943 8.98972 19.8943C8.47823 19.8943 7.98769 20.0806 7.62601 20.4121C7.26434 20.7437 7.06115 21.1933 7.06115 21.6622V24.7595C7.06115 25.7353 7.92515 26.5273 8.98972 26.5273H12.3686C12.8801 26.5273 13.3706 26.3411 13.7323 26.0095C14.094 25.678 14.2971 25.2283 14.2971 24.7595C14.2971 24.2906 14.094 23.841 13.7323 23.5094C13.3706 23.1779 12.8801 22.9916 12.3686 22.9916H10.9183V21.6622ZM14.6726 21.6622C14.6726 21.1933 14.8758 20.7437 15.2374 20.4121C15.5991 20.0806 16.0897 19.8943 16.6011 19.8943H18C18.5115 19.8943 19.002 20.0806 19.3637 20.4121C19.7254 20.7437 19.9286 21.1933 19.9286 21.6622V24.7595C19.9286 25.2283 19.7254 25.678 19.3637 26.0095C19.002 26.3411 18.5115 26.5273 18 26.5273C17.4885 26.5273 16.998 26.3411 16.6363 26.0095C16.2746 25.678 16.0714 25.2283 16.0714 24.7595V23.3617C15.6689 23.2563 15.3148 23.0337 15.0624 22.7276C14.8101 22.4214 14.6732 22.0483 14.6726 21.6646V21.6622ZM25.56 8.24063C25.56 7.77176 25.3568 7.3221 24.9951 6.99056C24.6335 6.65903 24.1429 6.47277 23.6314 6.47277C23.1199 6.47277 22.6294 6.65903 22.2677 6.99056C21.9061 7.3221 21.7029 7.77176 21.7029 8.24063V11.3379C21.7029 12.3138 22.5669 13.1058 23.6314 13.1058H27.0103C27.5218 13.1058 28.0123 12.9195 28.374 12.588C28.7357 12.2564 28.9389 11.8068 28.9389 11.3379C28.9389 10.869 28.7357 10.4194 28.374 10.0878C28.0123 9.75631 27.5218 9.57006 27.0103 9.57006H25.56V8.24063ZM21.7029 16.5001C21.7029 16.0312 21.9061 15.5815 22.2677 15.25C22.6294 14.9185 23.1199 14.7322 23.6314 14.7322H27.0103C27.5218 14.7322 28.0123 14.9185 28.374 15.25C28.7357 15.5815 28.9389 16.0312 28.9389 16.5001V18.0063C28.94 18.4531 28.7565 18.8838 28.4252 19.2117C28.094 19.5396 27.6395 19.7403 27.1534 19.7734C26.6672 19.8066 26.1854 19.6697 25.8049 19.3904C25.4243 19.1111 25.1733 18.71 25.1023 18.2679H23.6314C23.1199 18.2679 22.6294 18.0817 22.2677 17.7501C21.9061 17.4186 21.7029 16.9689 21.7029 16.5001ZM25.56 21.6622C25.56 21.1933 25.3568 20.7437 24.9951 20.4121C24.6335 20.0806 24.1429 19.8943 23.6314 19.8943C23.1199 19.8943 22.6294 20.0806 22.2677 20.4121C21.9061 20.7437 21.7029 21.1933 21.7029 21.6622V24.7595C21.7029 25.7353 22.5669 26.5273 23.6314 26.5273H27.0103C27.5218 26.5273 28.0123 26.3411 28.374 26.0095C28.7357 25.678 28.9389 25.2283 28.9389 24.7595C28.9389 24.2906 28.7357 23.841 28.374 23.5094C28.0123 23.1779 27.5218 22.9916 27.0103 22.9916H25.56V21.6622Z" fill="#898989"/>
</svg>
