<svg width="267" height="228" viewBox="0 0 267 228" fill="none" xmlns="http://www.w3.org/2000/svg">
<path d="M156.605 107.719C139.354 102.861 135.219 87.6581 135.219 87.6581C135.798 86.9357 136.364 86.2048 136.915 85.4659L137.473 77.6226C128.462 75.4474 133.577 65.8674 133.577 65.8674C129.445 60.5944 125.996 54.9371 123.294 48.9995C118.291 49.4251 113.499 50.971 109.38 53.4875C112.824 63.5266 118.641 75.9212 131.001 92.4347C125.682 98.2319 117 107.398 112.819 112.165L79.4813 99.1331L71.8821 112.856L109.301 129.586C111.885 130.641 114.811 130.877 117.573 130.252C120.335 129.626 122.761 128.18 124.432 126.161L132.621 116.303C135.908 120.7 138.426 124.31 147.547 127.642C157.249 123.83 161.451 119.213 165.09 112.856C161.941 111.588 159.069 109.85 156.605 107.719Z" fill="#E53E3E"/>
<path d="M157.056 167.025L155.704 160.569L187.292 155.479L188.644 161.934L157.056 167.025Z" fill="#E53E3E"/>
<path d="M184.696 161.587L179.74 156.682L206.427 136.135L211.381 141.039L184.696 161.587Z" fill="#E53E3E"/>
<path d="M63.3745 63.4558C62.2535 63.4281 61.1659 63.7902 60.3508 64.4626C59.5357 65.135 59.0599 66.0626 59.0281 67.0413C58.9963 68.02 59.411 68.9697 60.1811 69.6814C60.9513 70.3931 62.0136 70.8085 63.1346 70.8363C64.2555 70.8641 65.3431 70.5019 66.1582 69.8295C66.9733 69.1571 67.4491 68.2295 67.481 67.2508C67.5128 66.2721 67.098 65.3224 66.3279 64.6107C65.5578 63.899 64.4954 63.4836 63.3745 63.4558Z" fill="#E53E3E"/>
<path d="M66.8201 46.4718C67.9511 44.9721 68.6429 43.2529 68.8346 41.4651C69.0264 39.6774 68.7121 37.8759 67.9196 36.219C67.127 34.5621 65.8804 33.1006 64.2894 31.9629C62.6983 30.8253 60.8116 30.0464 58.7949 29.6946C56.7783 29.3428 54.6936 29.429 52.724 29.9456C50.7545 30.4621 48.9604 31.3932 47.4996 32.657C46.0388 33.9208 44.9559 35.4787 44.3462 37.1935C43.7365 38.9083 43.6186 40.7277 44.0029 42.4917C44.035 42.6792 44.0782 42.8643 44.1354 43.047L50.2296 42.0532C49.9775 41.3278 49.8977 40.5652 49.9951 39.8119C50.0925 39.0587 50.365 38.3307 50.7959 37.6727C51.2269 37.0146 51.8071 36.4403 52.5012 35.985C53.1953 35.5296 53.9885 35.2028 54.8324 35.0245C55.6762 34.8462 56.5528 34.8203 57.4085 34.9482C58.2642 35.0761 59.081 35.3553 59.8088 35.7685C60.5367 36.1818 61.1602 36.7204 61.6412 37.3514C62.1222 37.9825 62.4506 38.6926 62.6062 39.4384C63.1642 42.0946 61.5112 44.1334 59.4524 46.3804C58.1007 47.7875 57.36 49.5653 57.3601 51.4018C57.3685 54.1445 57.7423 56.8787 58.476 59.5459L64.7529 58.5046C64.0794 56.0512 63.7853 53.53 63.8783 51.0084C64.2759 49.2486 65.7335 47.9064 66.8201 46.4718Z" fill="#E53E3E"/>
<path fill-rule="evenodd" clip-rule="evenodd" d="M50.715 1.36457C60.8919 0.278101 71.2156 1.63083 80.579 5.27768C98.5951 12.2855 109.662 25.9528 112.964 40.883C112.964 40.883 113.045 42.895 113.219 44.4453C112.118 45.0251 109.952 43.4138 108.059 42.0047C106.352 40.7344 104.866 39.6298 104.587 40.4494C104.32 41.2374 104.964 42.0814 105.988 43.4211C107.362 45.2187 109.416 47.9078 110.864 52.5517L109.469 53.5418C109.892 55.0179 110.892 57.5 112.068 60.423L112.551 61.625C110.21 70.4621 105.028 78.8778 96.8404 85.7602C89.847 91.6664 81.2249 95.8951 71.8095 98.0366C71.6003 98.0853 70.1747 97.2766 68.48 96.3157C66.1631 95.0004 63.3427 93.4013 62.436 93.3136C60.9979 93.1735 64.3986 97.0038 65.8674 98.6602C66.0013 98.8087 66.1185 98.9403 66.2133 99.0499C58.8033 100.061 51.237 99.7731 43.9557 98.2036C36.6744 96.6341 29.8241 93.8141 23.8043 89.9083C17.7846 86.0025 12.716 81.089 8.89433 75.4546C5.07265 69.8202 2.57442 63.5776 1.5454 57.0912C0.516383 50.6047 0.97718 44.0043 2.90091 37.675C4.82464 31.3457 8.17277 25.4143 12.75 20.2269C17.3271 15.0394 23.0417 10.6999 29.5602 7.46137C36.0787 4.22287 43.2707 2.15029 50.7164 1.36457H50.715ZM52.2019 11.9201C60.1632 11.0699 68.2395 12.1279 75.5645 14.9807C104.427 26.2073 110.485 59.283 88.2857 77.94C83.249 82.1944 77.1255 85.3417 70.4209 87.1221C63.7163 88.9025 56.6228 89.2648 49.7262 88.1793C42.8295 87.0938 36.3275 84.5915 30.7569 80.8791C25.1864 77.1666 20.7071 72.3505 17.6889 66.8283C14.6707 61.3061 13.2002 55.2363 13.3987 49.12C13.5973 43.0037 15.4592 37.0164 18.8308 31.6523C22.2025 26.2883 26.987 21.7014 32.7895 18.2705C38.5919 14.8395 45.2459 12.6628 52.2019 11.9201Z" fill="#1E7C4D"/>
<path d="M211.461 149.995L214.694 145.714L209.712 142.289L207.089 144.349L211.461 149.995Z" fill="#1E7C4D"/>
<path d="M228.582 155.183L224.397 163.587C223.135 166.147 220.96 168.283 218.196 169.676L239.079 183.893L251.377 170.658L228.582 155.183Z" fill="#1E7C4D"/>
<path d="M206.559 91.1298C210.039 91.5544 213.572 90.7835 216.414 88.9794C219.257 87.1752 221.186 84.4786 221.797 81.4573C217.508 80.2527 212.986 79.8103 208.499 80.156C204.011 80.5018 199.648 81.6288 195.667 83.4705C196.523 85.4859 197.987 87.2618 199.905 88.6101C201.822 89.9584 204.121 90.829 206.559 91.1298Z" fill="#1E7C4D"/>
<path d="M126.712 86.5018L107.419 73.4058C104.646 78.5391 100.632 83.087 95.6538 86.7369L120.482 103.836L131.03 92.4294L126.712 86.5018Z" fill="#1E7C4D"/>
<path d="M142.188 104.92L132.651 116.398C133.322 117.474 134.103 118.496 134.983 119.451L142.188 104.92Z" fill="#1E7C4D"/>
<path d="M137.313 80.0233L141.101 77.6873C139.9 77.7558 138.695 77.7325 137.499 77.6179L137.313 80.0233Z" fill="#1E7C4D"/>
<path d="M162.514 92.0787C162.793 90.213 162.308 88.3213 161.144 86.7378C159.981 85.1542 158.214 83.9806 156.155 83.4243C156.418 82.7636 156.5 82.0581 156.394 81.3648C154.645 70.2125 151.994 63.3399 147.621 59.4073C144.653 56.6987 138.585 57.1396 134.981 61.0953C131.402 65.0571 132.302 70.2832 132.278 70.7167C132.641 66.8238 134.722 63.2062 138.082 60.6276C139.022 59.9535 140.128 59.4783 141.314 59.2392C141.128 62.7577 144.335 68.3333 148.204 66.9449C150.792 66.0229 151.103 70.1114 146.005 70.1114C144.627 79.7596 145.051 90.8157 150.139 99.8221L150.961 101.186C153.462 105.163 157.037 108.547 161.376 111.044C164.258 111.175 167.081 110.302 169.226 108.616C171.37 106.93 172.66 104.569 172.811 102.053C172.961 99.5374 171.961 97.0724 170.03 95.2004C168.099 93.3283 165.396 92.2024 162.514 92.0702V92.0787Z" fill="#1E7C4D"/>
<path d="M211.461 149.995L214.694 145.714L209.712 142.289L207.089 144.349L211.461 149.995Z" stroke="#319795" stroke-width="0.711835" stroke-linejoin="round"/>
<path d="M228.581 155.183L224.396 163.587C223.134 166.147 220.959 168.283 218.195 169.676L239.079 183.893L251.376 170.658L228.581 155.183Z" stroke="#319795" stroke-width="0.711835"/>
<path d="M126.711 86.5018L107.419 73.4058C104.646 78.5391 100.632 83.087 95.6533 86.7369L120.482 103.836L131.03 92.4294L126.711 86.5018Z" stroke="#319795" stroke-width="0.711835"/>
<path d="M133.178 65.3761C129.176 60.2673 125.868 54.7698 123.319 48.9941C118.315 49.4181 113.522 50.9664 109.407 53.4882C112.852 63.5298 118.655 75.9097 131.027 92.4305" stroke="#319795" stroke-width="0.711835" stroke-linecap="round" stroke-linejoin="round"/>
<path d="M113.647 46.4949C112.904 43.1192 112.62 39.6789 112.799 36.245C112.72 34.4706 112.86 32.694 113.218 30.9459C114.194 26.1511 115.532 26.6187 115.974 31.2467C117.055 42.583 120.159 46.3329 121.3 49.2485" stroke="#319795" stroke-width="0.711835" stroke-linecap="round" stroke-linejoin="round"/>
<path d="M112.983 32.4037C112.094 30.7674 110.943 29.25 109.564 27.8974C109.146 27.5467 108.169 27.5114 109.379 30.4428C109.638 31.0688 110.674 33.775 110.995 34.7469C111.739 36.6858 112.341 38.664 112.797 40.6696" stroke="#319795" stroke-width="0.711835" stroke-linecap="round" stroke-linejoin="round"/>
<path d="M113.17 43.7877C112.985 46.0786 108.933 42.5357 107.022 41.196C105.302 39.9903 102.837 39.2243 106.306 43.6026C108.362 46.396 109.917 49.4471 110.918 52.6504" stroke="#319795" stroke-width="0.711835" stroke-linecap="round" stroke-linejoin="round"/>
<path d="M213.343 152.401L207.089 144.349" stroke="#319795" stroke-width="0.711835" stroke-linecap="round" stroke-linejoin="round"/>
<path d="M137.533 77.5576C137.533 77.5576 137.24 80.7631 136.948 85.4606C136.364 86.1849 135.789 86.9157 135.226 87.6528" stroke="#319795" stroke-width="0.711835" stroke-linecap="round" stroke-linejoin="round"/>
<path d="M141.102 77.7568L137.323 79.9953" stroke="#319795" stroke-width="0.711835" stroke-linecap="round" stroke-linejoin="round"/>
<path d="M181.065 155.641L159.891 135.256" stroke="#319795" stroke-width="0.711835" stroke-linecap="round" stroke-linejoin="round"/>
<path d="M142.161 104.897L134.98 119.428" stroke="#319795" stroke-width="0.711835" stroke-linecap="round" stroke-linejoin="round"/>
<path d="M196.753 143.562C188.526 132.017 176.578 122.849 162.408 117.208" stroke="#319795" stroke-width="0.711835" stroke-linecap="round" stroke-linejoin="round"/>
<path d="M157.907 160.214L147.62 127.619" stroke="#319795" stroke-width="0.711835" stroke-linecap="round" stroke-linejoin="round"/>
<path d="M188.007 159.041L188.643 161.933L157.055 167.024L155.704 160.568L179.74 156.705" stroke="#319795" stroke-width="0.711835" stroke-linecap="round" stroke-linejoin="round"/>
<path d="M161.349 111.076C164.188 111.141 166.944 110.237 169.031 108.555C171.118 106.874 172.37 104.547 172.522 102.071C172.674 99.5949 171.713 97.1649 169.844 95.2982C167.974 93.4315 165.344 92.2756 162.514 92.0764C162.793 90.2107 162.307 88.319 161.144 86.7354C159.98 85.1519 158.213 83.9783 156.154 83.422C157.012 81.2505 154.359 67.6039 149.582 61.512C145.099 55.7951 138.546 57.1336 134.954 61.093C131.362 65.0524 132.274 70.2796 132.251 70.7144" stroke="#319795" stroke-width="0.711835" stroke-linecap="round" stroke-linejoin="round"/>
<path d="M211.461 149.995L229.509 126.023C232.953 121.186 232.82 119.659 234.358 116.328C241.566 112.903 257.917 108.877 266 107.951C260.063 116.05 246.151 120.839 240.665 130.882L224.368 163.553C223.405 165.489 221.919 167.191 220.038 168.516C218.156 169.84 215.936 170.747 213.566 171.158C211.195 171.569 208.746 171.473 206.428 170.878C204.109 170.284 201.99 169.207 200.252 167.742L189.015 158.279" stroke="#319795" stroke-width="0.711835" stroke-linecap="round" stroke-linejoin="round"/>
<path d="M184.696 161.587L179.74 156.683L206.427 136.136L211.381 141.04L184.696 161.587Z" stroke="#319795" stroke-width="0.711835" stroke-linecap="round" stroke-linejoin="round"/>
<path d="M65.8366 100.963C68.7253 100.709 63.9228 96.7092 63.1333 95.4827C62.0662 93.8203 60.935 91.8948 65.9161 94.9505C69.9514 97.1744 74.1372 99.1831 78.4503 100.966" stroke="#319795" stroke-width="0.711835" stroke-linecap="round" stroke-linejoin="round"/>
<path d="M162.143 166.191L164.342 173.087C165.776 177.518 169.132 181.286 173.697 183.591C178.255 185.905 219.888 203.352 219.888 203.352C230.992 208.832 235.523 221.261 244.375 227C243.871 219.896 240.373 205.365 236.954 198.866C233.307 197.32 231.531 197.313 226.461 194.147L186.682 169.735L184.404 162.608" stroke="#319795" stroke-width="0.711835" stroke-linecap="round" stroke-linejoin="round"/>
<path d="M142.161 104.897C140.652 106.61 131.601 117.545 124.433 126.185C122.759 128.202 120.333 129.647 117.572 130.271C114.81 130.896 111.886 130.661 109.301 129.607L71.8826 112.881L79.4609 99.1599L112.798 112.163" stroke="#319795" stroke-width="0.711835" stroke-linecap="round" stroke-linejoin="round"/>
<path d="M156.605 107.72C159.087 109.843 161.957 111.589 165.098 112.885C161.583 119.949 155.568 124.522 147.568 127.666C138.421 124.323 135.918 120.747 132.616 116.331" stroke="#319795" stroke-width="0.711835" stroke-linecap="round" stroke-linejoin="round"/>
<path d="M204.889 137.292C188.472 118.078 171.075 115.037 165.098 112.885" stroke="#319795" stroke-width="0.711835" stroke-linecap="round" stroke-linejoin="round"/>
<path d="M135.219 87.659C135.219 87.659 139.353 102.861 156.605 107.72C153.945 105.43 151.749 102.762 150.112 99.8295C145.011 90.8353 144.599 79.7682 145.977 70.12H146.666C150.851 69.9117 150.773 66.0218 148.177 66.9535C144.306 68.3382 141.102 62.7651 141.288 59.249C140.103 59.4899 138.997 59.9645 138.054 60.6362C136.095 62.1345 134.558 64.0077 133.563 66.1099C132.569 68.2122 132.145 70.4865 132.323 72.7555C132.817 75.6968 135.136 78.0473 141.102 77.7599" stroke="#319795" stroke-width="0.711835" stroke-linecap="round" stroke-linejoin="round"/>
<path d="M135.219 87.6592C132.728 90.9475 113.303 111.053 110.706 114.732" stroke="#319795" stroke-width="0.711835" stroke-linecap="round" stroke-linejoin="round"/>
<path d="M55.9542 103.602C54.6821 103.741 52.0598 104.205 51.2898 104.342C47.7929 104.971 48.2434 105.777 48.8 105.823C51.0513 106.01 54.7086 105.986 56.8023 106.217C60.1681 106.588 66.6612 107.119 69.2055 108.438" stroke="#319795" stroke-width="0.711835" stroke-linecap="round" stroke-linejoin="round"/>
<path d="M56.6163 106.193C56.0583 106.378 55.5562 106.54 55.3176 106.633C51.9783 107.743 52.5893 108.49 53.1444 108.459C55.3985 108.344 59.0029 107.766 61.1217 107.696C63.6698 107.654 66.2167 107.825 68.7279 108.205" stroke="#319795" stroke-width="0.711835" stroke-linecap="round" stroke-linejoin="round"/>
<path d="M153.425 39.7166C153.384 40.3119 153.141 40.8832 152.728 41.3579C152.314 41.8326 151.749 42.1892 151.102 42.3825C150.62 42.5274 150.106 42.577 149.599 42.5277C149.092 42.4785 148.603 42.3317 148.169 42.0978C147.734 41.8639 147.365 41.5489 147.086 41.1753C146.808 40.8017 146.628 40.3789 146.559 39.9373C146.491 39.4957 146.535 39.0463 146.689 38.6215C146.843 38.1966 147.104 37.8069 147.451 37.4804C147.798 37.1539 148.224 36.8987 148.698 36.7332C149.172 36.5677 149.682 36.496 150.192 36.5232C151.104 36.5756 151.956 36.9405 152.561 37.5386C153.167 38.1367 153.477 38.9195 153.425 39.7166Z" stroke="#319795" stroke-width="0.711835" stroke-linecap="round" stroke-linejoin="round"/>
<path d="M245.038 112.51C245.808 105.99 244.065 99.4317 240.085 93.8736C236.106 88.3155 230.117 84.0753 223.066 81.8241C217.206 79.9543 210.868 79.5399 204.755 80.6268C198.642 81.7137 192.994 84.2595 188.438 87.9811C183.883 91.7027 180.599 96.4543 178.951 101.708C177.303 106.961 177.356 112.511 179.104 117.74" stroke="#319795" stroke-width="0.711835" stroke-linecap="round" stroke-linejoin="round"/>
<path d="M209.182 138.863C212.974 139.098 216.784 138.761 220.445 137.868" stroke="#319795" stroke-width="0.711835" stroke-linecap="round" stroke-linejoin="round"/>
<path d="M210.321 67.6439C208.335 67.4049 206.313 67.5531 204.4 68.0779C202.488 68.6027 200.732 69.491 199.259 70.679C197.787 71.8669 196.634 73.325 195.884 74.9484C195.134 76.5718 194.806 78.3202 194.922 80.0677C195.079 82.4051 196.027 84.6492 197.644 86.5167C199.262 88.3842 201.476 89.7914 204.009 90.5605C206.542 91.3296 209.279 91.4262 211.875 90.838C214.47 90.2498 216.808 89.0033 218.593 87.2558C220.377 85.5076 221.527 83.3367 221.898 81.0177C222.39 77.9043 221.448 74.7477 219.277 72.2405C217.107 69.7333 213.886 68.0802 210.321 67.6439Z" stroke="#319795" stroke-width="0.711835" stroke-linecap="round" stroke-linejoin="round"/>
<path d="M110.124 32.3345C106.744 24.8082 101.299 18.1223 94.2656 12.8646C87.2326 7.60687 78.8278 3.93847 69.7904 2.18198C60.7529 0.425487 51.3595 0.6347 42.4364 2.79122C33.5132 4.94774 25.3336 8.98551 18.6168 14.5495C11.9 20.1134 6.85173 27.0331 3.91601 34.7C0.980301 42.3669 0.247037 50.5461 1.7807 58.5185C3.31437 66.4909 7.06798 74.0121 12.7115 80.4208C18.3549 86.8295 25.7154 91.9293 34.1456 95.2719C44.1907 99.1844 55.3097 100.501 66.1856 99.0669" stroke="#319795" stroke-width="0.711835" stroke-linecap="round" stroke-linejoin="round"/>
<path d="M112.509 61.5352C110.792 68.0178 107.586 74.1289 103.085 79.4982C98.5845 84.8676 92.8826 89.3837 86.3247 92.7731C81.7933 95.109 76.904 96.8699 71.8042 98.0027" stroke="#319795" stroke-width="0.711835" stroke-linecap="round" stroke-linejoin="round"/>
<path d="M75.5646 14.9807C68.2398 12.1279 60.1638 11.0698 52.2027 11.9197C44.2415 12.7697 36.6954 15.4957 30.3737 19.8055C24.052 24.1152 19.193 29.8462 16.318 36.3837C13.4429 42.9212 12.6601 50.0188 14.0535 56.9152C15.447 63.8116 18.9641 70.2468 24.2278 75.5307C29.4914 80.8145 36.303 84.7477 43.9321 86.9085C51.5612 89.0693 59.7201 89.3762 67.5338 87.7963C75.3475 86.2163 82.5212 82.8091 88.2858 77.9401C110.485 59.2831 104.427 26.2073 75.5646 14.9807Z" stroke="#319795" stroke-width="0.711835" stroke-linecap="round" stroke-linejoin="round"/>
<path d="M35.3364 131.16L47.1035 139.304L59.1077 123.223" stroke="#319795" stroke-width="0.711835" stroke-linecap="round" stroke-linejoin="round"/>
<path d="M138.373 138.31L126.924 139.581" stroke="#319795" stroke-width="0.711835" stroke-linecap="round" stroke-linejoin="round"/>
<path d="M133.364 143.955L131.906 133.937" stroke="#319795" stroke-width="0.711835" stroke-linecap="round" stroke-linejoin="round"/>
<path d="M67.4827 67.2513C67.4592 67.9814 67.1882 68.689 66.7041 69.2846C66.22 69.8802 65.5445 70.3371 64.7629 70.5975C63.9814 70.8579 63.129 70.9101 62.3135 70.7475C61.498 70.5849 60.756 70.2148 60.1814 69.6839C59.6069 69.1531 59.2255 68.4855 59.0855 67.7654C58.9455 67.0453 59.0533 66.3052 59.3951 65.6386C59.7369 64.972 60.2975 64.4088 61.0058 64.0204C61.7142 63.6319 62.5386 63.4356 63.3748 63.4563C64.4949 63.4866 65.5557 63.9027 66.3254 64.6138C67.0952 65.3249 67.5112 66.2732 67.4827 67.2513Z" stroke="#319795" stroke-width="0.711835" stroke-linecap="round" stroke-linejoin="round"/>
<path d="M66.7937 46.4725C67.9248 44.9729 68.6166 43.2536 68.8083 41.4658C69 39.6781 68.6858 37.8766 67.8932 36.2197C67.1007 34.5628 65.8541 33.1013 64.263 31.9637C62.672 30.826 60.7852 30.0471 58.7686 29.6953C56.7519 29.3435 54.6672 29.4297 52.6976 29.9463C50.7281 30.4628 48.9341 31.394 47.4732 32.6578C46.0124 33.9216 44.9295 35.4794 44.3198 37.1942C43.7101 38.9091 43.5922 40.7284 43.9765 42.4924C44.0072 42.6799 44.0519 42.8651 44.109 43.0478L50.2046 42.0539C49.9507 41.3282 49.8694 40.5647 49.9657 39.8105C50.062 39.0563 50.3338 38.3272 50.7645 37.6681C51.1953 37.0089 51.7757 36.4336 52.4703 35.9774C53.1649 35.5213 53.959 35.1939 54.8038 35.0154C55.6485 34.8369 56.5262 34.811 57.3828 34.9394C58.2394 35.0678 59.057 35.3478 59.7852 35.7621C60.5134 36.1763 61.1369 36.7162 61.6175 37.3485C62.0981 37.9809 62.4256 38.6923 62.5798 39.4391C63.1378 42.0954 61.4849 44.1341 59.4261 46.3811C58.0744 47.7882 57.3336 49.5661 57.3338 51.4025C57.3031 52.389 57.3533 53.3768 57.4816 54.3584C57.6364 55.6494 58.4734 59.5466 58.4734 59.5466L64.7503 58.5053C64.6708 58.5053 63.9022 54.1562 63.8492 53.6703C63.7034 52.7878 63.7034 51.8916 63.8492 51.0092C64.2495 49.2493 65.7071 47.9072 66.7937 46.4725Z" stroke="#319795" stroke-width="0.711835" stroke-linecap="round" stroke-linejoin="round"/>
<path d="M73.1796 110.52C69.4687 108.381 65.5389 106.546 61.4404 105.04C58.15 103.99 54.7341 103.268 51.2579 102.888C46.1429 102.34 45.5584 101.138 51.1253 100.481C53.1737 100.265 55.2383 100.187 57.3004 100.25C61.2102 100.294 65.1033 100.713 68.9085 101.499" stroke="#319795" stroke-width="0.711835" stroke-linecap="round" stroke-linejoin="round"/>
</svg>
