<svg width="31" height="34" viewBox="0 0 31 34" fill="none" xmlns="http://www.w3.org/2000/svg">
<path d="M28.625 0H2.37496C1.56996 0 0.916626 0.63325 0.916626 1.41667V34L6.74996 29.75L11.125 34L15.5 29.75L19.875 34L24.25 29.75L30.0833 34V1.41667C30.0833 0.63325 29.43 0 28.625 0ZM16.9583 22.6667H6.74996V19.8333H16.9583V22.6667ZM16.9583 17H6.74996V14.1667H16.9583V17ZM16.9583 11.3333H6.74996V8.5H16.9583V11.3333ZM24.25 22.6667H19.875V19.8333H24.25V22.6667ZM24.25 17H19.875V14.1667H24.25V17ZM24.25 11.3333H19.875V8.5H24.25V11.3333Z" fill="#DD6B20"/>
</svg>
