<svg xmlns="http://www.w3.org/2000/svg" viewBox="0 0 64 64"><g data-name="02-light bulbs"><path d="M44.29 43.09a.689.689 0 0 0-.13.11L44 43H19.6A25.633 25.633 0 0 1 9 24C9 9 19.3 1 32 1s23 8 23 23a25.663 25.663 0 0 1-10.71 19.09z" style="fill:#b4d3e0"/><path d="M19.6 43H44l.16.2a3.908 3.908 0 0 0-1.4 2.5L42 51s0 .5-1.25 1S37 53 32 53c-5.31 0-7.8-.56-8.97-1.09C22 51.44 22 51 22 51l-.76-5.3a3.952 3.952 0 0 0-1.53-2.61 1.063 1.063 0 0 1-.11-.09z" style="fill:#a4c9d6"/><path d="M32.127 50c-5.621 0-8.257-.56-9.5-1.09a1.988 1.988 0 0 1-1.04-.761L22 51s0 .44 1.03.91C24.2 52.44 26.69 53 32 53c5 0 7.5-.5 8.75-1S42 51 42 51l.361-2.515a3.557 3.557 0 0 1-.971.515c-1.323.5-3.97 1-9.263 1z" style="fill:#8dbbc9"/><path d="M32 1C19.523 1 9.37 8.727 9.017 23.222 9.2 29.746 17.171 35 27 35h10c9.829 0 17.8-5.254 17.983-11.778C54.63 8.727 44.477 1 32 1z" style="fill:#d9e6ec"/><path d="M32 57c4.97 0 9 0 9-2v1.44a3.693 3.693 0 0 1-3.03 3.41 4.776 4.776 0 0 1-1.21.15h-9.52a4.776 4.776 0 0 1-1.21-.15A3.693 3.693 0 0 1 23 56.44V55c0 2 4.03 2 9 2z" style="fill:#77848c"/><path d="M36.76 60a4.776 4.776 0 0 0 1.21-.15L38 60v1a2.006 2.006 0 0 1-2 2h-8a2.006 2.006 0 0 1-2-2v-1l.03-.15a4.776 4.776 0 0 0 1.21.15z" style="fill:#2e3b41"/><path d="M23.03 51.91C24.2 52.44 26.69 53 32 53c5 0 7.5-.5 8.75-1H41v3c0 2-4.03 2-9 2s-9 0-9-2v-3z" style="fill:#a2adb3"/><path d="m38 60-.03-.15a4.776 4.776 0 0 1-1.21.15h-9.52a4.776 4.776 0 0 1-1.21-.15L26 60v1a1.96 1.96 0 0 0 .239.925A2 2 0 0 1 28 60.85h8a2 2 0 0 1 1.761 1.075A1.96 1.96 0 0 0 38 61z" style="fill:#222c30"/><path d="M27 58v-1.1c-2.411-.174-4-.641-4-1.9v1.44a3.693 3.693 0 0 0 3.03 3.41 4.776 4.776 0 0 0 1.21.15H29a2 2 0 0 1-2-2zM37 56.9V58a2 2 0 0 1-2 2h1.76a4.776 4.776 0 0 0 1.21-.15A3.693 3.693 0 0 0 41 56.44V55c0 1.255-1.589 1.722-4 1.9z" style="fill:#9ea9af"/><path d="M27 56.9v-4.12a13.3 13.3 0 0 1-3.97-.87L23 52v3c0 1.255 1.589 1.722 4 1.9zM40.75 52a14.451 14.451 0 0 1-3.75.778V56.9c2.411-.174 4-.641 4-1.9v-3zM37 58v-1.1c-.616.045-1.289.069-2 .084V60a2 2 0 0 0 2-2z" style="fill:#bec5cd"/><path d="M35 56.98a39.289 39.289 0 0 0 2-.084v-4.118c-.593.062-1.258.113-2 .151z" style="fill:#dce4ed"/><path d="M40 57.143v-.837c-.033.015-.06.033-.094.047h-.015a4.607 4.607 0 0 1-.518.177l-.173.044a7.06 7.06 0 0 1-.458.1l-.209.038q-.257.043-.533.078v3.05a4.4 4.4 0 0 0 1.738-.869A1.977 1.977 0 0 0 40 58z" style="fill:#bec5cd"/><path d="M39.693 52.333c-.121.03-.248.06-.382.09l-.027.006c-.374.081-.8.158-1.284.227V56.8c.184-.024.362-.049.533-.078l.209-.038c.16-.031.312-.065.458-.1l.173-.044a4.607 4.607 0 0 0 .518-.177h.015c.035-.015.06-.035.094-.05v-4.062l-.233.063z" style="fill:#dce4ed"/><path d="M35 56.98c-.638.013-1.3.018-2 .019v3h2V56.98z" style="fill:#9ea9af"/><path d="M35 56.98v-4.051a54.35 54.35 0 0 1-2 .063V57c.7 0 1.362-.007 2-.02z" style="fill:#bec5cd"/><path d="M12.02 22.712c.336-2.586 2.689-16.911 13.8-18.689a2 2 0 0 1 1.976 2.9c-2.314 4.953-6.678 14.851-7.848 21.4a1.9 1.9 0 0 1-2.941 1.338c-1.91-1.318-4.27-3.437-4.955-6.185a2.077 2.077 0 0 1-.032-.764z" style="fill:#f1f9ff"/><path d="m25.89 21.07-7.84 4.9a12.1 12.1 0 0 1-2.02-5.98l6.5-2.79c1.29 1.36 2.4 2.65 3.36 3.87z" style="fill:#00c8c8"/><path d="M28.79 25.15A24.677 24.677 0 0 1 32 32a21.863 21.863 0 0 1-9.42-2.41zM35.21 25.15l6.21 4.44A21.863 21.863 0 0 1 32 32a24.677 24.677 0 0 1 3.21-6.85z" style="fill:#1cadb5"/><path d="m41.47 17.2 6.5 2.79a12.1 12.1 0 0 1-2.02 5.98l-7.84-4.9c.96-1.22 2.07-2.51 3.36-3.87z" style="fill:#00c8c8"/><path d="M17 12a68.084 68.084 0 0 1 5.53 5.2l-6.5 2.79Q16 19.5 16 19c0-5 1-7 1-7zM28.79 25.15l-6.21 4.44a12.348 12.348 0 0 1-4.34-3.33 2.4 2.4 0 0 1-.19-.29l7.84-4.9a45.933 45.933 0 0 1 2.9 4.08zM45.95 25.97a2.4 2.4 0 0 1-.19.29 12.348 12.348 0 0 1-4.34 3.33l-6.21-4.44a45.933 45.933 0 0 1 2.9-4.08zM48 19q0 .495-.03.99l-6.5-2.79A68.084 68.084 0 0 1 47 12s1 2 1 7zM35.21 25.15A24.677 24.677 0 0 0 32 32v-9a10.057 10.057 0 0 1 1.09-4.69L35 25z" style="fill:#64e1dc"/><path d="m41 17 .47.2c-1.29 1.36-2.4 2.65-3.36 3.87L38 21l-.97-6.76A15.3 15.3 0 0 1 41 12.67z" style="fill:#64e1dc"/><path d="M30.91 18.31 29 25l-.21.15a45.933 45.933 0 0 0-2.9-4.08L26 21l.97-6.76a9.966 9.966 0 0 1 3.94 4.07z" style="fill:#b4f5f0"/><path d="M26.97 14.24 26 21l-.11.07c-.96-1.22-2.07-2.51-3.36-3.87L23 17v-4.33a15.3 15.3 0 0 1 3.97 1.57zM32 23v9a24.677 24.677 0 0 0-3.21-6.85L29 25l1.91-6.69A10.057 10.057 0 0 1 32 23z" style="fill:#64e1dc"/><path d="M23 12.67V17l-.47.2A68.084 68.084 0 0 0 17 12a24.994 24.994 0 0 1 6 .67zM38 21l.11.07a45.933 45.933 0 0 0-2.9 4.08L35 25l-1.91-6.69a9.966 9.966 0 0 1 3.94-4.07zM47 12a68.084 68.084 0 0 0-5.53 5.2L41 17v-4.33a24.994 24.994 0 0 1 6-.67z" style="fill:#b4f5f0"/><path d="M27 27c-.192-.048-.387-.1-.583-.153L22.58 29.59A21.863 21.863 0 0 0 32 32a21.824 21.824 0 0 0-2.226-5.182A4.017 4.017 0 0 1 27 27zM37 27a4.017 4.017 0 0 1-2.774-.182A21.824 21.824 0 0 0 32 32a21.863 21.863 0 0 0 9.42-2.41l-3.837-2.743c-.196.053-.391.105-.583.153z" style="fill:#00a0aa"/><path d="M17 12s-1 2-1 7q0 .495.03.99l2.3-.989A29.443 29.443 0 0 1 17 12zM21.216 23.991 18.05 25.97a2.4 2.4 0 0 0 .19.29 12.348 12.348 0 0 0 4.34 3.33l3.837-2.743a10.91 10.91 0 0 1-5.201-2.856zM37.583 26.847l3.837 2.743a12.348 12.348 0 0 0 4.34-3.33 2.4 2.4 0 0 0 .19-.29l-3.166-1.979a10.919 10.919 0 0 1-5.201 2.856zM45.666 19l2.3.989Q48 19.5 48 19c0-5-1-7-1-7a29.443 29.443 0 0 1-1.334 7zM32 24v8a21.824 21.824 0 0 1 2.226-5.182A4.657 4.657 0 0 1 32 24zM32 24v8a21.824 21.824 0 0 0-2.226-5.182A4.657 4.657 0 0 0 32 24z" style="fill:#00c8c8"/><path d="m18.334 19-2.3.989a12.1 12.1 0 0 0 2.02 5.98l3.166-1.979A12.889 12.889 0 0 1 18.334 19zM42.784 23.991l3.166 1.979a12.1 12.1 0 0 0 2.02-5.98L45.666 19a12.889 12.889 0 0 1-2.882 4.991z" style="fill:#1cadb5"/><path d="m17 12-.025.055v.008c-.018.039-.042.1-.074.179l.142.122c-.015-.124-.032-.236-.043-.364z" style="fill:#8fff93"/><path d="M32 0C17.645 0 8 9.645 8 24c0 .475.126 11.719 11.111 19.892a2.961 2.961 0 0 1 1.142 1.949L21 51.092a1.828 1.828 0 0 0 1 1.4v3.952a4.555 4.555 0 0 0 3 4.1V61a3 3 0 0 0 3 3h8a3 3 0 0 0 3-3v-.453a4.555 4.555 0 0 0 3-4.1v-3.955a1.834 1.834 0 0 0 1-1.4l.75-5.25a2.961 2.961 0 0 1 1.142-1.949C55.874 35.719 56 24.475 56 24 56 9.645 46.355 0 32 0zm5 61a1 1 0 0 1-1 1h-8a1 1 0 0 1-1-1v-.021c.08 0 .155.021.235.021h9.53c.08 0 .155-.018.235-.021zm-.235-2h-9.53a3.351 3.351 0 0 1-2.959-1.531C26.1 58 28.865 58 32 58s5.9 0 7.724-.531A3.351 3.351 0 0 1 36.765 59zm7.3-17H40v2h2.283a4.962 4.962 0 0 0-.515 1.558l-.738 5.157C40.758 50.948 39.129 52 32 52v2a33.7 33.7 0 0 0 8-.715V55c0 1-5.008 1-8 1s-8 0-8-1v-1.713a17.2 17.2 0 0 0 1.858.36l.284-1.98c-2.291-.327-3-.8-3.172-.951l-.738-5.157A4.959 4.959 0 0 0 21.717 44H38v-2h-5v-9.031a23.32 23.32 0 0 0 8.343-2.21l.076.055.1-.142a13.728 13.728 0 0 0 5.043-3.82A13.364 13.364 0 0 0 49 19c0-5.177-1.061-7.357-1.1-7.447A1 1 0 0 0 47 11c-6.134 0-12.586 2-15 7.229C29.586 13 23.134 11 17 11a1 1 0 0 0-.895.553C16.061 11.643 15 13.823 15 19a13.364 13.364 0 0 0 2.437 7.852 13.728 13.728 0 0 0 5.043 3.82l.1.142.076-.055A23.32 23.32 0 0 0 31 32.969V42H19.935A24.884 24.884 0 0 1 10 24c0-13.364 8.636-22 22-22s22 8.636 22 22a24.883 24.883 0 0 1-9.935 18zM19.524 26.227l6.12-3.826a45.28 45.28 0 0 1 1.774 2.5L22.5 28.412a12.454 12.454 0 0 1-2.976-2.185zM41.5 28.412 36.574 24.9a45.549 45.549 0 0 1 1.775-2.5l6.127 3.83a12.454 12.454 0 0 1-2.976 2.182zM35.513 26.6l3.926 2.8a21.009 21.009 0 0 1-6.045 1.529 28.469 28.469 0 0 1 2.119-4.329zm10.112-2.009L39.6 20.82a55.794 55.794 0 0 1 2.122-2.423l5.169 2.215a11.369 11.369 0 0 1-1.266 3.974zM43.2 16.856c1-1.009 2.1-2.045 3.3-3.105a22.959 22.959 0 0 1 .489 4.729zM42 15.225v-1.749a21.979 21.979 0 0 1 2.179-.325Q43.025 14.2 42 15.225zm-1.961 2.038a60.8 60.8 0 0 0-1.346 1.518l-.567-3.972A13.734 13.734 0 0 1 40 14.026V17a1 1 0 0 0 .039.263zM36.276 16l.7 4.887a48.271 48.271 0 0 0-1.518 2.072l-1.29-4.518A8.661 8.661 0 0 1 36.276 16zm-3.214 5.86.951 3.326A36.38 36.38 0 0 0 33 26.969V23a10.634 10.634 0 0 1 .062-1.142zM31 26.967a36.38 36.38 0 0 0-1.013-1.783l.951-3.326A10.634 10.634 0 0 1 31 23zm-2.456-4.01a48.271 48.271 0 0 0-1.518-2.072l.7-4.887a8.666 8.666 0 0 1 2.11 2.441zm-3.237-4.176c-.427-.5-.872-1-1.346-1.518A1 1 0 0 0 24 17v-2.974a13.609 13.609 0 0 1 1.874.783zM22 15.225q-1.024-1.02-2.179-2.074a21.688 21.688 0 0 1 2.179.325zm-4.5-1.472c1.2 1.059 2.293 2.1 3.3 3.1l-3.791 1.627a23.034 23.034 0 0 1 .491-4.727zm4.775 4.647a56.477 56.477 0 0 1 2.12 2.425l-6.02 3.762a11.369 11.369 0 0 1-1.266-3.974zm6.2 8.2a28.8 28.8 0 0 1 2.125 4.329 21.033 21.033 0 0 1-6.04-1.529z"/><path d="M27.926 53.865q.924.069 2.043.1l.062-2a45.052 45.052 0 0 1-1.957-.1z"/></g></svg>