<svg width="34" height="32" viewBox="0 0 34 32" fill="none" xmlns="http://www.w3.org/2000/svg">
    <path d="M32.0688 13.5814L28.05 12.9632C27.8147 12.2042 27.4931 11.4746 27.0905 10.784L29.4365 7.63712C29.6262 7.38304 29.5936 7.0368 29.3603 6.81664L26.7158 4.32896C26.4799 4.10752 26.1086 4.07872 25.8379 4.2624L22.5447 6.49024C21.8042 6.10496 21.0222 5.79904 20.2109 5.57696L19.5098 1.80992C19.4527 1.504 19.1705 1.28 18.84 1.28H15.1C14.7668 1.28 14.4826 1.5072 14.4289 1.81696L13.7788 5.56352C12.9628 5.78432 12.1794 6.08704 11.4416 6.4672L8.15725 4.2592C7.88593 4.0768 7.51669 4.10624 7.28073 4.32704L4.63757 6.81472C4.40433 7.03424 4.37169 7.37984 4.56141 7.63392L6.87273 10.7462C6.46133 11.447 6.13357 12.1888 5.89489 12.9606L1.92981 13.5821C1.60205 13.6333 1.36133 13.9008 1.36133 14.2131V17.7331C1.36133 18.0435 1.59797 18.3091 1.92233 18.3635L5.88741 19.0253C6.12473 19.7952 6.45249 20.537 6.86525 21.2397L4.52537 24.32C4.33225 24.5741 4.36285 24.9229 4.59745 25.145L7.24129 27.6352C7.47453 27.8547 7.84241 27.8854 8.11237 27.7069L11.424 25.5238C12.1672 25.9085 12.9526 26.2138 13.7666 26.4352L14.4302 30.1862C14.484 30.4941 14.7675 30.72 15.1 30.72H18.84C19.1698 30.72 19.452 30.4973 19.5092 30.192L20.2198 26.4224C21.0351 26.1965 21.8164 25.8893 22.5522 25.504L25.8876 27.7062C26.1582 27.8861 26.5254 27.8547 26.7593 27.6352L29.4032 25.145C29.6385 24.9229 29.6691 24.5728 29.4739 24.3181L27.0953 21.2096C27.4985 20.5184 27.8188 19.7875 28.052 19.0285L32.0763 18.3635C32.402 18.3098 32.6386 18.0435 32.6386 17.7331V14.2131C32.6393 13.8995 32.3979 13.632 32.0688 13.5814ZM17 20.48C14.3711 20.48 12.24 18.4742 12.24 16C12.24 13.5258 14.3711 11.52 17 11.52C19.6288 11.52 21.76 13.5258 21.76 16C21.76 18.4742 19.6288 20.48 17 20.48Z" fill="#898989"/>
</svg>
