<svg width="52" height="43" viewBox="0 0 52 43" fill="none" xmlns="http://www.w3.org/2000/svg">
<path d="M10.0122 8.08937C10.4065 6.78504 10.6037 6.13467 11.1908 5.75483C11.7802 5.375 12.5927 5.375 14.2177 5.375H37.7823C39.4073 5.375 40.2198 5.375 40.8092 5.75483C41.3942 6.13467 41.5935 6.78504 41.9878 8.08937L44.5943 16.7145C44.8045 17.4096 44.9107 17.7554 44.8868 18.0385C44.8572 18.3955 44.6989 18.737 44.4325 19.019C44.166 19.3009 43.8036 19.5105 43.3918 19.6205C43.0668 19.7083 42.6248 19.7083 41.7387 19.7083C40.5838 19.7083 40.0053 19.7083 39.5222 19.6152C38.8523 19.4861 38.2292 19.2271 37.7043 18.8595C37.1795 18.4918 36.7681 18.0262 36.504 17.501C36.3112 17.1212 36.218 16.6589 36.0338 15.7398C35.9818 15.4818 35.9558 15.3528 35.9255 15.3188C35.9054 15.2958 35.879 15.2771 35.8485 15.2642C35.818 15.2514 35.7843 15.2447 35.75 15.2447C35.7157 15.2447 35.682 15.2514 35.6515 15.2642C35.621 15.2771 35.5946 15.2958 35.5745 15.3188C35.5442 15.3528 35.5182 15.48 35.4662 15.7398L35.2907 16.6159C35.1498 17.4595 34.6504 18.234 33.8817 18.8006C33.1131 19.3673 32.1255 19.6891 31.096 19.7083H30.654C29.6245 19.6891 28.6369 19.3673 27.8683 18.8006C27.0996 18.234 26.6001 17.4595 26.4593 16.6159L26.2838 15.738C26.2318 15.4818 26.2058 15.3528 26.1755 15.3188C26.1554 15.2958 26.129 15.2771 26.0985 15.2642C26.068 15.2514 26.0343 15.2447 26 15.2447C25.9657 15.2447 25.932 15.2514 25.9015 15.2642C25.871 15.2771 25.8446 15.2958 25.8245 15.3188C25.7942 15.3528 25.7682 15.48 25.7162 15.7398L25.5407 16.6159C25.3999 17.4595 24.9004 18.234 24.1317 18.8006C23.3631 19.3673 22.3755 19.6891 21.346 19.7083H20.904C19.9128 19.6891 18.9595 19.3895 18.2033 18.8593C17.447 18.3291 16.9335 17.6005 16.7483 16.7951C16.7327 16.7358 16.7197 16.676 16.7093 16.6159L16.5338 15.738C16.4818 15.4818 16.4558 15.3528 16.4255 15.3188C16.4054 15.2958 16.379 15.2771 16.3485 15.2642C16.318 15.2514 16.2843 15.2447 16.25 15.2447C16.2157 15.2447 16.182 15.2514 16.1515 15.2642C16.121 15.2771 16.0946 15.2958 16.0745 15.3188C16.0442 15.3528 16.0182 15.48 15.9662 15.7398C15.782 16.6607 15.6888 17.1194 15.496 17.501C15.2321 18.026 14.821 18.4915 14.2966 18.8591C13.7722 19.2267 13.1495 19.4859 12.48 19.6152C11.9947 19.7083 11.4183 19.7083 10.2613 19.7083C9.37517 19.7083 8.93317 19.7083 8.60817 19.6205C8.19641 19.5105 7.83396 19.3009 7.5675 19.019C7.30105 18.737 7.14281 18.3955 7.11317 18.0385C7.0915 17.7554 7.1955 17.4096 7.40567 16.7145L10.0122 8.08937Z" fill="#1E7C4D"/>
<path fill-rule="evenodd" clip-rule="evenodd" d="M10.8702 22.3958C10.8334 23.1501 10.8334 24.0352 10.8334 25.0833V35.8333C10.8334 37.5228 10.8334 38.3667 11.4682 38.8917C12.103 39.4166 13.1235 39.4166 15.1667 39.4166H21.6667V32.2499C21.6667 31.7748 21.895 31.3191 22.3013 30.983C22.7076 30.647 23.2587 30.4583 23.8334 30.4583H28.1667C28.7413 30.4583 29.2924 30.647 29.6988 30.983C30.1051 31.3191 30.3334 31.7748 30.3334 32.2499V39.4166H36.8334C38.8765 39.4166 39.897 39.4166 40.5319 38.8917C41.1667 38.3667 41.1667 37.5228 41.1667 35.8333V25.0833C41.1667 24.0352 41.1667 23.1501 41.1299 22.3958C40.339 22.3958 39.5309 22.3761 38.7834 22.2327C37.6741 22.019 36.6373 21.6014 35.75 21.0108C34.4847 21.8529 32.89 22.3617 31.1719 22.394L30.8989 22.3958H30.5782C28.9089 22.3638 27.2993 21.8762 26 21.009C24.7347 21.8511 23.14 22.36 21.4219 22.3922L21.1489 22.394H20.8282C19.1592 22.3625 17.5496 21.8756 16.25 21.009C15.3747 21.5913 14.3434 22.0124 13.2167 22.231C12.4692 22.3743 11.661 22.3922 10.8702 22.394" fill="#1E7C4D"/>
</svg>
