<svg width="125" height="139" viewBox="0 0 125 139" fill="none" xmlns="http://www.w3.org/2000/svg">
<path d="M24.3 9.98695V24.5999H46.1982L27.6712 8.7889C27.3936 8.55319 27.0402 8.39315 26.6559 8.32907C26.2716 8.26499 25.8736 8.29976 25.5125 8.42897C25.1513 8.55819 24.8433 8.77602 24.6274 9.05485C24.4116 9.33367 24.2976 9.65278 24.3 9.98695ZM14.75 24.5999V9.98695C14.7518 8.0425 15.4288 6.14212 16.6955 4.52585C17.9622 2.90959 19.7618 1.64995 21.867 0.906051C23.9721 0.162149 26.2883 -0.0326432 28.5231 0.346278C30.7579 0.725199 32.811 1.66084 34.423 3.035L52.95 18.8379V12.3749C52.95 9.13263 54.4592 6.02316 57.1457 3.73052C59.8322 1.43789 63.4758 0.149902 67.275 0.149902H95.925C99.7242 0.149902 103.368 1.43789 106.054 3.73052C108.741 6.02316 110.25 9.13263 110.25 12.3749V24.5999H119.79C120.464 24.5996 121.129 24.7208 121.744 24.9555C122.358 25.1902 122.908 25.5332 123.356 25.9619C123.804 26.3905 124.141 26.8953 124.344 27.4429C124.548 27.9905 124.614 28.5687 124.537 29.1395L111.673 124.274C111.134 128.245 108.905 131.909 105.408 134.568C101.911 137.228 97.3907 138.698 92.7067 138.7H32.2838C27.5997 138.698 23.0796 137.228 19.5827 134.568C16.0859 131.909 13.8562 128.245 13.3175 124.274L0.444108 29.1313C0.368718 28.5605 0.435594 27.9825 0.640351 27.4353C0.845108 26.8881 1.18312 26.384 1.63221 25.9561C2.0813 25.5282 2.63132 25.1862 3.24619 24.9525C3.86107 24.7187 4.5269 24.5986 5.20001 24.5999H14.75ZM100.7 24.5999V12.3749C100.7 11.2941 100.197 10.2577 99.3015 9.49344C98.406 8.72923 97.1914 8.2999 95.925 8.2999H67.275C66.0086 8.2999 64.7941 8.72923 63.8986 9.49344C63.0031 10.2577 62.5 11.2941 62.5 12.3749V24.5999H100.7ZM74.9055 55.1624C73.6481 53.3041 71.8398 51.761 69.6622 50.6881C67.4846 49.6153 65.0144 49.0504 62.5 49.0504C59.9856 49.0504 57.5154 49.6153 55.3378 50.6881C53.1602 51.761 51.3519 53.3041 50.0946 55.1624L45.778 61.5357C45.4595 61.9993 45.2516 62.5121 45.1663 63.0446C45.081 63.577 45.1199 64.1186 45.2809 64.6382C45.4418 65.1578 45.7216 65.645 46.1042 66.0719C46.4867 66.4988 46.9644 66.8569 47.5097 67.1256C48.0551 67.3944 48.6573 67.5684 49.2818 67.6376C49.9063 67.7069 50.5406 67.6701 51.1484 67.5293C51.7561 67.3885 52.3252 67.1464 52.8229 66.8172C53.3206 66.4879 53.737 66.0779 54.0483 65.6107L58.3649 59.2374C58.784 58.618 59.3867 58.1036 60.1126 57.746C60.8385 57.3884 61.6619 57.2001 62.5 57.2001C63.3382 57.2001 64.1615 57.3884 64.8874 57.746C65.6133 58.1036 66.216 58.618 66.6352 59.2374L70.9422 65.6107C71.5754 66.5477 72.6189 67.2317 73.843 67.5122C75.0671 67.7926 76.3717 67.6466 77.4696 67.1062C78.5676 66.5658 79.3691 65.6754 79.6977 64.6307C80.0264 63.586 79.8553 62.4727 79.2221 61.5357L74.9055 55.1624ZM83.1758 83.6874C83.5948 84.3069 83.8155 85.0096 83.8155 85.7249C83.8155 86.4402 83.5949 87.1429 83.1758 87.7624C82.7567 88.3818 82.1539 88.8963 81.4281 89.2539C80.7022 89.6116 79.8788 89.7999 79.0406 89.7999H72.05C70.7836 89.7999 69.5691 90.2292 68.6736 90.9934C67.7781 91.7577 67.275 92.7942 67.275 93.8749C67.275 94.9557 67.7781 95.9922 68.6736 96.7564C69.5691 97.5206 70.7836 97.9499 72.05 97.9499H79.0406C81.5551 97.9499 84.0254 97.3849 86.203 96.312C88.3806 95.239 90.1889 93.6957 91.4462 91.8373C92.7034 89.9789 93.3653 87.8707 93.3652 85.7248C93.3652 83.5789 92.7033 81.4708 91.4461 79.6124L90.4242 78.0965C89.791 77.1595 88.7476 76.4755 87.5234 76.1951C86.2993 75.9146 84.9948 76.0606 83.8968 76.601C82.7988 77.1414 81.9973 78.0318 81.6687 79.0765C81.3401 80.1212 81.5112 81.2345 82.1444 82.1715L83.1758 83.6874ZM52.95 89.7999H45.9594C45.1212 89.7999 44.2978 89.6116 43.5719 89.2539C42.8461 88.8963 42.2433 88.3818 41.8242 87.7624C41.4051 87.1429 41.1845 86.4402 41.1845 85.7249C41.1845 85.0096 41.4052 84.3069 41.8243 83.6874L42.8461 82.1715C43.4693 81.2361 43.6337 80.1282 43.3033 79.0897C42.9729 78.0512 42.1747 77.1664 41.0827 76.6284C39.9907 76.0903 38.6937 75.9427 37.4746 76.2178C36.2556 76.4928 35.2135 77.1682 34.5758 78.0965L33.554 79.6124C32.2967 81.4708 31.6348 83.5789 31.6348 85.7248C31.6348 87.8707 32.2966 89.9789 33.5539 91.8373C34.8111 93.6957 36.6194 95.239 38.797 96.312C40.9747 97.3849 43.4449 97.9499 45.9594 97.9499H52.95C54.2164 97.9499 55.431 97.5206 56.3264 96.7564C57.2219 95.9922 57.725 94.9557 57.725 93.8749C57.725 92.7942 57.2219 91.7577 56.3264 90.9934C55.431 90.2292 54.2164 89.7999 52.95 89.7999Z" fill="#A0E7B5"/>
</svg>
