<svg width="32" height="34" viewBox="0 0 32 34" fill="none" xmlns="http://www.w3.org/2000/svg">
<path d="M30.6667 5.66667H5.33333H4C3.26533 5.66667 2.66667 5.03058 2.66667 4.25C2.66667 3.46942 3.26533 2.83333 4 2.83333H24V4.25H26.6667V1.41667C26.6667 0.634667 26.0693 0 25.3333 0H4C1.79067 0 0 1.90258 0 4.25V28.3333C0 31.4627 2.388 34 5.33333 34H30.6667C31.4027 34 32 33.3653 32 32.5833V7.08333C32 6.30133 31.4027 5.66667 30.6667 5.66667ZM24 22.6667C22.5267 22.6667 21.3333 21.3987 21.3333 19.8333C21.3333 18.2679 22.5267 17 24 17C25.4733 17 26.6667 18.2679 26.6667 19.8333C26.6667 21.3987 25.4733 22.6667 24 22.6667Z" fill="#138A36"/>
</svg>
